<?xml version="1.0" encoding="UTF-8"?>
<svg id="Layer_1" xmlns="http://www.w3.org/2000/svg" version="1.1" viewBox="0 0 260.954 624.932">
  <!-- Generator: Adobe Illustrator 29.8.2, SVG Export Plug-In . SVG Version: 2.1.1 Build 3)  -->
  <g id="Kiosk">
    <path d="M230.6,277.421c9.02-50.655,20.335-100.886,29.779-151.483.365-5.351-.482-9.59-5.409-12.28-6.286-3.421-8.625-2.909-13.333-9.254-2.895-3.889-8.538-2.003-12.382-1.886-3.216.102-6.462-.117-9.678-.015l2.222-53.433c4.196.848,6.184-3.757,8.669-4.839,3.859-1.696,7.061.687,9.605-4.722,1.52-3.26.599-6.125,1.55-9.459-.95-5.541,1.491-12.879.424-18.069-1.067-5.278-6.739-3.962-8.567-5.468-.322-.263-.497-1.447-.965-2.061-2.31-2.982-6.213-4.269-9.912-3.889-22.133,4.956-45.465,7.339-67.511,12.382-12.499,2.851-9.605,12.602-9.868,22.63-.102,3.772-.892,7.514-.599,11.564.892,12.456,9.883,10.233,19.312,9.078l-1.652,47.921h-18.464c-.234,0-4.298.658-4.722.804-1.506.482-1.652,2.149-2.514,2.427-.892.292-2.31.044-3.538.322-4.883,1.126-7.982,5.263-9.502,9.78-5.394,26.051-10.277,52.234-15.496,78.329-1.769,8.801-3.567,17.587-5.438,26.358-.804,3.786-2.193,13.245-3.757,16.081-.526.936-1.681,1.725-2.412,2.544-18.522,9.122-38.843,15.438-57.555,23.975-13.377,6.096-19.414,18.391-18.142,32.995,10.599,60.772,21.475,121.499,31.373,182.417l-.921,1.316-43.697,24.078c-5.38,3.275-8.581,10.555-6.198,16.593,1.886,4.81,8.538,8.83,12.485,12.295,12.046,10.555,24.268,20.905,36.372,31.402,19.209,16.666,38.053,33.946,57.892,49.851,2.383,1.93,4.795,3.83,7.222,5.701,11.359,5.307,24.867,3.479,34.603-4.327,30.232-26.519,60.538-52.965,90.638-79.616,3.143-2.778,6.886-5.394,9.941-8.245,2.602-2.427,5.102-4.488,5.497-8.26.95-9.035-4.356-12.792-11.198-16.914-2.748-1.652-19.312-10.219-19.94-11.461-.906-1.769.248-3.918.307-5.775,2.31-69.792,3.041-139.627,5.482-209.389ZM254.809,115.471c3.83,2.661,4.269,6.564,3.83,10.935l-27.499,137.522-3.319-2.529,27.542-137.741c.029-1.155-.95-4.503-1.506-5.57-.672-1.286-2.471-2.485-2.865-3.742-.336-1.067,3.318.775,3.816,1.126ZM225.089,266.443c.088.716-.073,2.909-1.096,2.997-.76-1.433-.95-3.933-1.637-5.146-.453-.775-1.623-1.389-2.339-3.304-.365-.994.219-2.982-1.535-2.573,1.082,5.234,5.541,9.371,5.511,14.868l-6.491-11.359,1.535-7.909c.497-.073.746.629,1.096,1.096-.395-1.857-.716-3.085-.292-4.985.117-.497.176-1.228.833-1.067l5.438,11.958-.468,4.006-4.941-9.561c-.044-.322-.526-.307-.57-.351.804,3.728,4.693,8.742,4.956,11.33ZM220.688,365.297l.965.102c.614.702-.015,6.52-.556,7.763-.892,2.017-4.21,3.479-4.824,5.906l4.956-4.4.029,14.634-.848,12.923-43.799,30.291c1.608-6.608,2.251-12.792,2.748-19.56.058-.936.512-1.813.555-2.748.19-3.626.219-7.777-.555-11.286,2.281.292,2.12-1.462,3.055-2.734,2.529-3.421,2.558-.482,2.734-.585l.278-2.193c-3.465-.278-3.406,4.269-6.067,4.956-2.88-17.66-20.949-33.405-39.106-25.905-.351-5.234-1.155-10.467-1.667-15.686-1.579-15.73-4.386-29.867,6.374-43.214,4.386-5.424,13.552-9.809,19.707-13.362,13.99-8.114,28.727-16.651,42.966-24.253,4.108-2.178,6.155-4.137,10.248-.687,5.044,4.24,5.804,14.181,5.555,20.35-.673,17.382-1.184,34.925-1.681,52.322-.161,5.57,1.023,12.426-1.067,17.367ZM219.051,461.505v7.558l-6.637,5.321c1.301.322,6.359-4.707,6.608-4.4.526,3.231-.468,6.608-.57,9.619-.278,8.83.38,18.289-.512,27.031-.365,3.479-2.281,5.204-4.707,7.427-15.92,12.075-31.007,25.247-46.825,37.454-1.36,1.053-7.076,5.818-8.245,5.526-.629-.161-.95-1.286-.848-1.93l-3.187-32.44c.088-.453,2.091-2.368,2.631-2.836,4.4-3.786,9.327-7.485,12.382-12.412,3.479-2.924,7.953-5.555,11.271-8.552.629-.57,1.374-.833,1.155-1.886-9.356,6.608-18.391,13.64-26.724,21.475l-.819-.819c5.16-4.166,10.043-8.698,15.145-12.938,2.573-2.134,6.228-4.108,8.567-6.315,1.272-1.228,1.754-3.406,3.83-3.611l-1.096-.819,1.637-2.485c-.906.936-2.821,1.93-3.552,2.778-3.772,4.4-7.134,8.742-13.26,10.423l-11.564,9.386c-.526-.146-.322-1.462-.19-1.857.292-.877,7.324-4.985,8.216-6.652,7.09-3.275,12.324-12.192,19.268-15.482,1.52-.731.205,1.155,2.441-1.374,1.184-1.345,2.588-2.661,4.152-3.552-1.403-1.93-2.222,1.827-3.845,1.374l-.278-1.652-28.653,20.379-.351-1.038-1.023-.336,30.291-20.394-.263-.819-6.622,4.4c-1.184.132-.994-.175-.278-.833,2.047-1.886,4.707-2.778,6.622-4.663l-8.552,3.304-.57-1.14c-1.827-.278-4.707,2.968-6.111,3.275-.643.146-1.184-.439-1.301-1.038,3.202-.687,5.731-3.479,8.304-5.204,1.71-1.17,3.684-2.12,5.438-3.377.877-.629,2.909-3.45,2.792-.789l-.307,1.082,24.545-17.879c-.512-.892-1.228.205-1.696.497-3.699,2.281-6.769,5.38-10.57,7.5-1.535,1.564-4.722,4.108-6.754,4.941-.248.102-.892.146-.804-.263.746-.439,1.067-1.857,1.623-2.193.263-.161,1.053.205,1.959-.219,3.435-1.637,10.497-8.406,14.327-11.096.848-.599,2.149-.292,1.93-1.637h1.096l.263,1.082,2.485-2.471-1.096-.819c3.392-.146,6.14-3.786,9.093-5.511l.19,6.257-2.675,2.544,2.748-1.082-.672,3.216-.98.088v.541l1.126.336ZM153.47,516.824c-.263-1.476.702-2.178,1.637-3.041,1.535-1.433,3.845-3.07,5.585-4.342.979-.716,2.047-1.9,3.245-1.988-2.88,3.713-7.032,6.213-10.467,9.371ZM152.446,500.07c.219-.702,1.096-.702,1.389-1.053,2.31-2.821,8.245-6.915,11.564-9.108,2.207-1.447,4.854-3.216,7.353-3.947-1.681,2.573-5.38,3.655-7.69,5.292-.863.599-3.26,3.377-3.903,3.786-.658.424-1.696.219-2.529.819-.556.38-.526,2.631-2.412,3.055h2.207l-6.052,4.678c.102-1.082-.263-2.514.073-3.523ZM136.307,352.564l-3.231,1.17c.468-2.719-.468-5.424-.57-7.967-.453-10.38,1.55-21.344,8.289-29.501-.599,2.5-2.251,4.634-3.172,7.017-3.903,9.985-1.915,18.976-1.316,29.282ZM133.134,355.444l3.801-1.155,14.341,156.658c-.848.497-2.69,2.588-2.763.643-.336-8.859-1.842-19.136-2.748-28.113-4.006-39.662-7.938-79.309-11.578-119.014-.132-1.433-1.433-8.479-1.053-9.02ZM177.153,408.277c.614-.132,1.096-.292,1.652-.556v1.667l-1.096-.556c1.345,4.05,0,8.011,0,12.119l-2.748-4.693c-2.632-2.675-7.602-2.193-11.023-1.915l3.026,3.304c2.602-.409-1.228-1.827-1.374-2.748,4.123-.775,10.657,1.637,11.037,6.374.132,1.784-2.558,2.471-1.111,5.19l1.096-.278c-1.447,7.821-4.59,15.072-7.719,22.309-1.038.117-.453-1.126-.307-1.681,1.374-5.234,2.997-10.116,2.515-15.672-.132-1.564-.731-4.985-1.126-6.506-.132-.497-.862-.38-1.082-.76-1.93-3.377-3.816-6.681-7.163-8.991l2.763,3.859-3.859.556c3.304-.263,4.634-.205,6.52,2.558,8.494,12.441-2.178,34.15-10.146,44.778-2.12,2.821-4.605,5.307-7.119,7.763l-5.234-55.816c.102-.439.775-.629,1.096-.936-1.009,0-1.564-.292-1.652-1.374l-1.593-18.639c.512-2.076,14.414-7.207,14.619-8.888-.38-1.462-.936-7.587-2.339-7.982-1.447-.424-12.938,6.008-13.435,5.468l-1.082-13.186c1.623-.088,3.129-.848,4.707-1.082,11.988-1.798,21.198,3.64,27.996,13.23,4.649,6.564,6.038,13.683,5.877,21.68l-1.608.38c-.307.219,0,.877-.088,1.023ZM204.169,421.785c-3.801,3.538-8.274,6.447-12.148,9.897-2.69,2.412-5,5.321-7.69,7.734-3.377,3.041-7.105,5.409-9.941,8.231-1.784,1.783-3.45,3.757-5.497,5.263-.088-1.257,1.199-2.003,1.652-3.041.643-1.535-1.725.453-1.096-1.082,1.053-2.602,2.953-5.014,3.874-7.704,10.994-7.426,21.227-15.906,31.987-23.654.541-.38,2.865-2.427,3.245-1.988.336,1.886.322,2.734-.556,4.4l-2.193-1.096c.161,1.447-.687,2.149-1.637,3.041ZM188.175,446.301c-.643,2.324.468,6.856-2.748,7.149.731-2.865-1.257-6.403,2.748-7.149ZM187.196,453.582c.146-.205,4.064-2.573,4.283-2.324.804,4.342-1.257,4.503-4.123,6.593-1.228.044-.482-3.772-.161-4.269ZM191.479,448.509l-1.096-.57.278,2.237-1.93,1.082.102-3.216,3.202-2.295-.556,2.763ZM188.731,445.746c-.278-1.199.643-1.228,1.257-1.769.643-.556,4.196-3.187,4.795-2.632,1.082.994-5.292,5.088-6.052,4.4ZM195.894,444.635v-.541h-1.111c.57-.994,1.52-1.623,1.038-2.938-.468-.994-1.14-1.52-2.134-.921-.365-1.433.599-2.895.585-4.137-.015-.848-.585-1.564-.599-2.149-.015-.263,1.433-.482,1.126-1.418,1.023-.117.482,1.17.395,1.769-.175,1.272-.497,1.915-.38,3.406.044.482.292,2.091,1.082,1.974v-7.704c.775-.073.994,2.003,1.038,2.529.132,1.272.044,2.529.059,3.801.015.672-.409,2.061.555,1.93v-9.912c.965-.132.541,1.257.541,1.915.029,1.316-.249,2.968.278,4.137,1.623-1.199.365-2.69.263-4.137-.161-2.061.365-3.143,2.222-4.123l.57,10.102-4.152,2.588c-1.053,2.383-.044,5.292-3.026,6.593-.015-1.243.175-2.895,1.652-2.763ZM203.598,437.208l-1.637.278c-.073-2.105.073-4.24,0-6.345-.058-1.418-1.52-3.319.541-4.137v8.815l1.608.029.205,4.225-3.742,2.909c-1.447-3.333,1.199-3.786,3.026-5.775ZM177.43,458.961l-.833-5.775.57-6.345,1.082,1.096,1.111-2.193-.556,3.859-1.652-1.111c-.526,3.552,1.652,7.061.278,10.467ZM170.545,471.636c1.886.643,1.199,7.427.541,8.26-2.105.424-.731-2.31-.716-3.479.015-1.462-.833-2.982.175-4.78ZM169.448,469.429c.102-2.032.965-4.488,3.304-4.4l-.658,3.742-2.646.658ZM177.153,476.051c-.965,1.74-2.924,2.602-4.4,3.859-.336-2.368,1.93-5.16,4.4-3.859ZM174.945,461.724c-.965.117-.512-1.257-.541-1.93-.117-2.529-.219-4.941-.556-7.441l1.111-.278-1.14-.585c-.292-1.608.892-2.851,2.237-3.538-.863,4.532-1.272,9.152-1.111,13.771ZM167.241,465.584l.278-7.163c1.067,1.608,1.944,6.491-.278,7.163ZM164.756,462.28c-2.573,1.462.161,6.374-3.026,6.608l-.541-3.859c-.789,1.155-.263,3.699-.57,4.4-.015.058-.365-.015-.541,0l-.541-3.304-.088,4.605-3.231,2.558c-.059-1.257.994-2.149,1.389-3.289.395-1.155.175-2.456.877-3.538.468-.731,4.166-3.45,5.19-4.196,1.009-.746,2.12-.468,2.748-2.193l.19,5.701-2.675,2.003c-.585-.716,2.076-4.444.819-5.497ZM162.724,474.297c-.146.219-2.705,1.652-3.187,2.295l.059-4.357c1.652.278,1.71-1.389,3.231-1.696-.175.95.351,3.129-.102,3.757ZM152.402,475.773l-2.237,3.582c-.351-3.304-.088-5.102,3.026-6.608.556.102.336,1.155.088,1.535-.132.19-1.023.044-.877,1.491ZM157.87,474.955l.556-1.667c-.088,1.199.307,2.792-.263,3.874-.512.98-1.71.804-2.31,1.286-.687.526-1.491,2.237-2.938,2.003-.775-2.909,2.047-6.725,4.956-5.497ZM145.736,393.38l-2.178.57c.541-1.389-.161-2.938-.044-4.123.175-1.798,1.52-.833,1.608-.921.556-.482.117-2.661,1.184-2.661.585,2.719-1.301,4.59-.57,7.134ZM150.707,384.039c.102.95-.175,2.047,0,2.953,0,.029.029.059.073.088.132.117.482.249.76.482.044.044.102.102.146.146.073.073.146.175.19.292.029.073.044.146.059.234q.015.015.015.029l.687-3.684,1.374,4.386-5.497,2.237v-4.956l1.096,3.845c.132-.833.556-1.506.526-2.412-.044-1.053-1.696-4.035.57-3.64ZM151.262,492.308c-.058-1.155-.234-3.187.263-4.152.468-.906,7.163-4.81,8.684-6.067.775-.629,1.959-1.944,2.617-2.734-.921-.175-1.447.482-2.149.877-3.158,1.798-6.593,4.254-9.137,6.827-.936-1.374-1.301-2.617-.015-3.874,1.696-1.667,5.818-3.728,7.967-5.248,2.076-1.462,3.991-3.216,6.096-4.649v10.189l-13.493,9.663c-1.067.088-.789.015-.833-.833ZM152.49,494.632l8.143-5.365-1.944,2.193-6.871,4.971.673-1.798ZM152.914,507.994c2.076,1.33,3.158-1.696,4.678-2.778,1.842-1.301,3.435-2.178,5.526-3.816.541-.439,3.158-2.588,3.567-2.207-1.067.716-1.389,2.719-1.769,3.172-.424.497-2.149.395-2.485,1.769l-9.517,6.622v-2.763ZM184.316,472.192c5.029-4.43,10.599-8.479,16.14-12.251,1.096-.746,2.383-1.886,3.699-2.076-.716,1.243-2.207,2.12-3.362,2.982-4.064,3.041-8.26,6.125-12.441,9.035-1.17.833-2.617,2.032-4.035,2.31ZM219.036,446.023l-35.817,25.072c-.687-.848,1.389-8.274-1.652-8.274v-.541c1.301-.424,2.661-1.243,3.816-1.974,6.491-4.152,17.674-13.786,23.873-16.344,1.535-.629,3.684-.599,5.482-1.126,1.725-.512,3.172-1.593,4.839-2.047-.234,1.535.614,4.035-.541,5.234ZM212.677,439.152c-2.558-1.886-1.842-6.023-1.9-8.83l1.345,5.526c1.447,3.318,4.62,3.231,7.456,1.637.468,3.348-5.073,3.012-6.9,1.667ZM215.44,419.841c-4.707,3.713-9.005,17.28-1.944,20.701l3.333.789-4.166,1.082c-.424.102.19-1.447-1.067-1.082-.643.19.205,1.301-.819,1.111l-.833-2.207-.292,1.652c-2.982.19-4.342-.936-3.289-3.859l-1.096.556c-.731-3.333.965-4.137,3.845-4.971l-.263-1.082-3.582,1.637c.234-8.391,7.514-15.16,14.59-18.727.512.058.351,1.286.175,1.564-.365.585-3.889,2.281-4.59,2.836ZM209.665,415.44c-.175-2.573,2.953-4.43,4.4-1.93-1.126,1.374-2.573,2.164-4.4,1.93ZM214.928,412.721l-1.403-1.14,6.886-5.511.175,2.661-5.658,3.991ZM174.96,438.582c-.351-5.409,6.111-7.587,9.868-10.233,11.871-8.333,23.756-16.637,35.583-25.028l.175,2.105-45.626,33.156ZM147.958,308.005c4.152-3.874,9.97-6.754,15.043-9.473,1.126-.585,2.427-1.418,3.684-1.55l-1.637,1.389-17.09,9.634ZM215.177,271.632l-5.511.833,5.775-5.234,3.041,6.067-3.582-3.859.278,2.193ZM223.437,277.699c-2.12-1.243-3.085-3.772-4.503-5.687l-3.202-6.432c1.447-.278.936.322,1.36,1.096,1.316,2.441,3.275,6.535,5.248,8.274-1.725-4.313-4.97-7.617-5.511-12.119.833.117,1.023,1.038,1.389,1.637,1.096,1.842,5.292,9.239,5.76,10.76.088.278.161.906-.263.819-.336-.512-.979-.746-1.374-1.096.395.994.965,1.769,1.096,2.748ZM220.791,248.11c-.248-1.184-.395-2.602.716-3.465,1.623,5.131,5.541,9.868,5.234,15.423l-5.95-11.958ZM222.34,238.038l5.979,11.973c-.322,1.681.044,4.78-1.564,5.658-1.228-6.228-6.696-10.877-4.415-17.631ZM227.296,214.896c.687.044.906.775,1.213,1.272.789,1.36,4.605,8.611,4.751,9.59.248,1.594-1.901,5.087-1.009,7.31-.687-.044-.921-.76-1.213-1.272-.95-1.623-4.459-8.187-4.751-9.59-.482-2.339,1.418-4.883,1.009-7.31ZM230.6,204.428l4.956,11.564c-1.447.278-.95-.322-1.36-1.096-1.067-1.959-2.529-6.096-4.152-7.163.979,3.377,4.049,7.149,4.737,9.912.219.921-.205,1.374-.322,2.207l-5.263-10.453-.248-2.222c.088-.102.848.38,1.096.556-.292-1.009-1.462-3.786.556-3.304ZM238.874,160.352l4.839,10.862.102,4.006c-1.447.292-.936-.336-1.36-1.096-.979-1.783-4.181-8.508-4.108-10.131.044-1.067.862-2.368.526-3.64ZM243.83,137.21c.789-.132.716.921.95,1.506.687,1.754,3.757,8.859,3.918,9.897.146,1.067-.673,2.31-.468,3.465-.76.073-.906-1.213-1.184-1.842-.863-1.901-3.377-7.368-3.684-9.035-.263-1.36.643-2.617.468-3.991ZM243.728,144.183c.658,1.374,3.991,9.064,4.006,9.824.015.833-.219,1.725-1.155,1.93l-4.123-9.853.263-3.362c.76-.132.746.877,1.009,1.462ZM244.824,153.554c.439,1.009,2.091,3.377,2.178,3.845.248,1.374-1.462,4.488-.979,6.257l-1.228-.716-2.617-5.351c-.629,2.31,3.231,6.622,3.26,7.953.029.892-.526,4.444-1.608,4.722l-4.327-10.862,2.12-12.28c1.623,1.506,2.31,4.386,3.202,6.432ZM242.602,176.17l.117,4.561c-.789-.132-1.067-1.009-1.403-1.637-.731-1.433-3.786-7.587-4.006-8.684-.351-1.623.57-2.953.453-4.547l4.839,10.306ZM241.36,180.716l.263,4.971c-.789-.132-1.082-1.009-1.403-1.623-.643-1.243-3.859-8.362-4.02-9.254-.234-1.243.453-2.237.468-3.436l4.693,9.342ZM236.755,177.617c1.053,2.339,3.567,7.558,4.079,9.722.292,1.243-.702,2.982-.322,4.415l-5.409-11.973.453-4.006c.775-.073.906,1.213,1.199,1.842ZM235.57,182.646c.863,1.842,4.05,8.625,4.313,10.058.248,1.345-.643,2.631-.468,4.006l-4.123-7.719-1.389-1.652c.599,3.494,5.117,8.421,4.839,11.681-.029.453-.278,2.748-.98,2.646l-4.722-11.549,1.418-8.83c.819.058.848.833,1.111,1.36ZM233.626,192.865c.862,1.813,4.166,9.312,4.166,10.73-.015.892-.468,1.637-.585,2.471l-5.38-10.818.424-4.05c.833.146,1.067,1.009,1.374,1.667ZM232.252,196.709c1.023,4.356,4.459,8.143,4.4,12.675l-5.394-10.862c-.205-1.14-.57-2.12.994-1.813ZM231.609,200.92c1.842,3.991,4.473,8.538,4.503,12.865l-5.774-10.964.263-3.348c.76-.132.746.877,1.009,1.447ZM233.655,220.378l.249,3.874c-.833-.117-1.023-1.038-1.389-1.637-.921-1.55-4.707-8.918-4.649-10.146.044-.775.629-1.667.541-2.529l5.248,10.438ZM231.462,234.164l-.322,4.415-1.374-1.637-4.678-8.83c.439,4.035,4.488,8.26,5.219,12.075.161.863-.278,3.114-1.36,3.348-.541-3.976-5.307-9.122-4.927-12.879.234-2.368,1.754-4.97,1.623-7.5l5.818,11.008ZM229.372,244.996l-.424,4.05-5.979-11.973.468-3.45,5.935,11.374ZM247.909,118.219c-.073-1.126.482-2.953.599-4.152,1.199.804.541,2.398,1.082,3.362.278.482,1.184.015,1.681.439.512.424,1.871,2.339,1.096,2.807l-1.374-1.096c.731,2.836,2.924,4.897,2.193,8.26l-1.389-1.637-2.456-4.415c-.439,2.281,3.172,5.862,3.304,7.441.073.789-.497,2.602-.57,3.83-.073,1.053.19.906-1.082.848l-2.105-5.336-1.754-2.938c.248,1.974,1.301,4.05,2.105,5.891.424,1.009,2.076,3.362,2.164,3.83.175.936-1.053,5.745-1.798,6.813-1.55-2.456-1.637-6.023-2.997-8.479-.205-.38-.556-.307-.585-.336.892,4.81,3.684,8.888,3.304,13.771-1.126-.497-1.462-2.237-1.9-3.319-.614-1.535-2.792-6.915-2.953-8.099-.161-1.067.658-2.295.453-3.45.482-.088.775.643,1.096,1.096-.248-1.345-.599-2.573-.439-3.991.322-2.748,1.783-6.096,2.105-8.947l1.082.263c.263-1.009-.804-1.564-.863-2.456ZM217.925,102.504l-3.845-.015c.029-.848.497-1.593.555-2.456.804-11.14.029-22.952,1.082-34.092,1.9-.965,1.93-3.684,3.859-4.766l-1.652,41.328ZM232.808,36.104c.555-6.608.731-13.727,1.111-20.379.132-2.456-.336-5.029.263-7.441,6.315,1.447,6.652,3.596,6.345,9.649-.292,5.76-.497,11.885-1.096,17.631-.541,5.087-3.465,6.71-8.274,6.871.643-2.061,1.462-4.123,1.652-6.33ZM231.711,13.517c.088-1.272-.029-2.588-.015-3.859.015-.658-.395-2.061.556-1.93v10.204l-.556,2.734c-.585,6.71.921,17.251-3.055,22.85-.409.585-2.924,3.333-3.552,2.778,1.17-1.652,2.807-2.924,3.757-4.78,2.675-5.16,1.915-18.829,2.295-25.247.058-.936.497-1.813.57-2.748ZM151.525,54.597c-4.254.439-5.19-5.277-5.263-8.567-.044-1.594.599-2.895.614-4.386.102-5.643-.526-12.192-.029-17.66.365-3.874,2.588-7.821,6.491-8.947L222.209,2.363c7.046-.833,8.157,4.766,7.85,10.613-.234,4.152-.877,8.508-1.111,12.66-.351,5.848,1.33,14.853-4.43,18.712-1.988,1.33-5.073,1.535-7.47,1.886-21.753,3.245-43.799,4.897-65.523,8.362ZM169.448,55.664l-3.859,3.859v-3.859h3.859ZM164.77,98.659l38.287-35.013-1.667.556c-12.046,11.461-24.852,22.133-36.635,33.887l-.161-5.965c.526-.263,1.111-.453,1.55-.892,10.804-10.555,22.353-20.233,33.054-30.89l-1.652.556-32.791,30.583.249-2.515,9.956-8.771c3.83-3.611,7.324-7.573,11.008-11.315-6.52,4.634-12.031,11.476-18.172,16.827-1.009.892-2.251,1.608-3.304,2.471l.512-3.07,13.26-13.186c-.556-.906-1.228.175-1.667.541-4.108,3.45-7.748,8.274-11.842,11.856-.058-.906.205-5.161.38-5.424.322-.453,3.816-2.427,4.313-3.669-1.798-.599-2.865,2.558-4.415,3.026l.278-4.4c4.079-3.64,7.909-7.529,11.842-11.315,2.324-2.251,4.371-3.626,6.622-6.315-.292.161-1.067.029-1.389.512l-17.075,16.008-.175-7.339c1.594-1.798,3.245-3.552,4.854-5.336-.234.146-.775.117-1.374.526-1.096.746-2.164,2.485-3.304,3.333-.453-.848.351-2.88.804-3.596.38-.599,4.941-4.649,5.541-4.941.877-.439,1.813-.278,2.748-.263-1.403,1.696-2.924,3.318-4.415,4.941.248-.132.789-.102,1.389-.512,3.552-2.412,2.631-4.766,8.318-5.497.57-.073,1.462-.395,1.316.497-.643.015-1.213.395-1.681.804-4.327,3.947-8.567,7.953-12.646,12.148l.819.278,13.537-12.909c1.52-1.038,3.055-1.667,4.927-1.418-.658.95-1.462,1.871-2.193,2.763,1.681-.95,2.017-1.579,3.319-2.456,1.813-1.213,4.006-.716,6.052-1.403l.263,1.096c.994-1.111,2.441-1.52,3.859-1.667.585-.044,1.52-.307,1.374.556-2.982,1.418-5.248,4.605-7.704,6.915-.746.702-1.696,1.14-2.5,1.9-3.275,3.143-6.359,6.506-9.619,9.649l.819.278,18.742-18.172c.877-.541,1.71-1.462,2.763-1.637.673-.117,3.012-.322,3.012.526,2.573-1.228,2.456-.673,4.707-.775.979-.058,2.602-1.477,4.108-.877l.278,1.096,1.374-1.096c.556,3.026-.38,2.295-1.667,3.552-1.477,1.462-2.895,2.997-4.386,4.444.541.892,1.213-.19,1.652-.556,1.433-1.213,2.69-2.88,4.123-4.137v2.748c-16.461,14.678-32.835,29.414-48.199,45.188l1.93-1.096,44.077-41.314,2.471-1.389c-.263,2.807-1.155,3.772-2.748,5.789.702-.365,1.55-.482,2.193-1.111.789,3.45-2.938,4.634-4.4,7.163,1.93-.102,2.748-2.602,4.4-3.304l-.278,4.956-15.701,14.868,1.93-1.096,13.786-12.66-.38,5.95c-6.783,5.234-12.967,11.505-19.18,17.455l1.652-.541,17.353-16.256c.439.643.468,3.348.175,3.757-.132.19-1.096.439-1.564.892-1.33,1.301-2.763,2.646-3.845,4.166,2.207-.468,3.523-3.099,5.234-4.415l.19,3.509c-2.953,2.12-5.131,4.97-7.631,7.514,2.704-1.608,3.523-2.968,5.789-4.956.614-.541.906-1.33,1.93-1.096-.614,2.895-.746,4.488-3.304,6.33l2.748-1.374c0,.936.161,1.857-.278,2.748-.205.424-6.052,6.301-6.579,6.637-1.754,1.14-6.783,0-9.122.526,3.026-2.865,5.906-5.848,8.815-8.815-3.713,2.222-6.374,6.111-9.941,8.523-1.433.965-2.675.965-4.386.848l1.096-1.389c-.863-1.009-1.608.994-2.573,1.286-1.067.322-2.368.015-3.479.102l1.374-2.207c-1.477.205-1.74,1.93-3.304,2.193-2.704.482-7.236-.556-10.189.015l6.886-7.719c-3.465,1.71-5.95,6.856-9.619,8.026-.994.322-1.023.19-1.667-.585,9.59-9.517,19.341-18.829,29.18-28.112,4.166-3.918,9.108-7.353,12.689-11.827-3.114,1.55-9.166,7.47-12.134,10.175-6.301,5.731-12.572,11.783-18.742,17.631-2.354,2.237-11.549,12.397-13.596,12.85-1.14.248-2.324.088-3.465.102l1.096-1.374-1.14-.599.877-3.509ZM206.902,103.045l6.067-6.052c.526,3.626-2.441,6.579-6.067,6.052ZM108.048,203.449l16.476-82.247c1.009-6.432,4.064-11.447,11.037-12.105,27.396.512,54.778-1.301,82.072-1.667,6.374-.088,16.022-.716,22.016.058,5.351.702,6.812,5.307,6.9,10.087l-30.276,141.951-108.225-22.908-6.374-1.345,6.374-31.826ZM23.725,283.781c2.617-7.982,7.807-13.683,15.321-17.207,17.923-8.391,38.697-14.268,56.225-23.098,3.231-1.623,5.643-3.816,5.862-7.646l6.915,1.462,108.225,22.776c-.95,4.21-2.661,7.47-6.096,10.146-18.464,12.178-40.027,21.183-58.535,32.937-16.958,10.774-23.23,31.431-19.107,50.582l-24.487-9.839-83.402-33.522c-1.433-9.108-3.903-17.484-.921-26.592ZM25.085,313.238l82.963,32.615,24.414,9.59,14.941,156.41c-13.23-7.836-26.314-15.906-39.355-24.063-19.692-12.309-39.267-24.838-58.988-37.089l-23.975-137.463ZM108.837,613.792l-71.078-61.152c1.053-.263,1.301.599,1.93,1.096,2.032,1.608,4.064,3.304,6.052,4.956,15.072,12.616,29.75,25.744,44.647,38.565,5.599,4.81,12.061,9.517,17.353,14.59.073.059.132.117.205.19.073.058.146.132.219.205.117.102.234.219.336.336.015.015.029.029.044.059.044.058.088.117.117.175.059.088.117.19.132.292,0,0,.029.015.015.029.044.102.058.219.058.351,0,.088,0,.19-.029.307ZM152.636,561.997l-44.588-31.709-24.005-17.06.819-.263,10.482,7.149.819-.263c-9.005-6.169-17.952-12.602-27.031-18.698-1.944-1.286-4.4-2.295-6.228-3.699-.731-.556-1.038-1.608-1.447-1.857-.848-.512-2.091,0-3.07-.775-.395-.307-2.222-2.997-1.886-3.348l5.468,3.07c15.189,10.511,30.685,20.598,46.079,30.832,13.567,9.02,27.045,18.157,40.188,27.805l.263-.819c-13.245-9.634-26.811-18.815-40.451-27.908-15.204-10.131-30.495-20.116-45.539-30.466-1.403-1.243-5.234-2.441-6.272-3.626-.702-.789-1.155-4.386-1.389-5.497l2.748.819-3.202-2.31-5.058-30.466,58.71,36.445,39.369,24.429c1.038,1.009.38,3.07.526,4.415.819,7.368,1.535,15.028,2.748,22.046.161.95.015,2.017-.015,2.997l-1.623.57c2.207.292,2.412,1.93,2.207,3.859l-2.207-.833c1.784,1.418,3.114,2.032,2.748,4.693-1.403-1.082-2.821-2.134-4.342-3.085-.482-.292-1.184-1.389-1.71-.497,4.006,2.968,7.119,4.415,6.608,10.189l-1.652-.278c1.111,1.111,2.997,2.324,1.93,4.137ZM210.777,561.734l-31.416,27.265.804-2.222c10.818-8.976,21.198-18.522,31.972-27.542.629-.512.906-1.33,1.93-1.096l-3.289,3.596ZM223.422,469.677c-.278,10.511.073,21.563-.526,32.001-.263,4.576-.863,9.561-3.874,13.201-19.37,16.636-39.384,32.674-59.354,48.638-4.707,1.827-5.351-2.091-6.067-5.789-.775-4.123-.409-8.669-1.71-12.748l1.023-.073c-1.228-1.433-2.12-4.634,0-5.219l-1.667-1.199-2.748-24.414,3.319-1.111c.073,1.184-.132,2.412-.015,3.582,1.111,10.95,2.032,22.031,3.319,33.039.248,2.091-.19,9.605,3.012,9.663,2.207-.76,4.181-2.471,6.067-3.874,17.967-13.42,34.662-28.683,52.629-42.132,1.053-1.535,2.31-3.216,2.632-5.088,1.491-9.108-.205-18.829,1.243-27.952l-.015-17.923,3.304-.556c.088,2.675-.497,5.292-.57,7.953ZM223.992,459.254c-.205,1.14-.702,1.506-1.93,1.389-1.974-.19-.819-1.637-.804-3.026.906-61.327,2.968-122.698,4.444-183.996,1.009-2.924.731-7.09,1.696-9.868.789-2.281,2.281.599,3.713.789-.936,4.02-1.783,8.201-2.164,12.324-.19,1.959.117,4.079,0,6.082-3.099,54.544-1.944,109.57-4.985,164.143-.424,3.64.658,8.742.029,12.163Z" fill="none" stroke="#fff" stroke-miterlimit="10"/>
    <path d="M92.026,247.394c1.184-.892,10.745-5.073,12.251-5.394,1.023-.219,2.324-.132,3.772.132v-4.839l-6.915-1.462c-.219,3.83-2.632,6.023-5.862,7.646-17.528,8.83-38.302,14.707-56.225,23.098-7.514,3.523-12.704,9.225-15.321,17.207-2.982,9.108-.512,17.484.921,26.592l83.402,33.522v-12.09l-24.926-9.371c-2.178-.746-3.319-2.266-3.786-4.488-.804-3.713.76-10.292,2.076-13.947,2.412-6.681,9.283-17.528,17.236-17.528,3.158.643,6.286,1.418,9.4,2.266v-5.614l-5.701-1.681c-.76-.599-.95-3.976-.409-4.854l6.111-2.953v-17.718c-5.087.512-10.789-2.368-15.73-3.304-1.491-1.403-2.091-3.859-.292-5.219ZM73.591,322.624c-.731.322-11.052-3.421-11.856-5.263-.161-2.924-2.456-12.645,1.199-13.698.877-.248,6.608,1.871,7.88,2.412,4.97,2.164,2.982,3.275,3.275,7.163.146,2.105,1.769,8.377-.497,9.385ZM98.823,263.197c3.962,1.286,0,3.026-1.915,3.962-16.841,8.245-38.448,12.952-40.407,35.612-.292,3.231.497,7.441-.015,10.453-.292,1.74-1.857,2.295-3.45,1.842-5.745-2.529-11.812-4.283-17.616-6.637-5.073-2.061-7.441-2.31-8.07-8.464-1.403-13.742,6.242-27.294,18.683-32.995,7.777-3.582,16.198-6.169,24.092-9.532,1.915-.219,3.874-.234,5.789.015,5.248.702,17.631,4.05,22.908,5.745Z" fill="none" stroke="#fff" stroke-miterlimit="10"/>
    <path d="M150.707,557.86l1.652.278c.512-5.775-2.602-7.222-6.608-10.189.526-.892,1.228.205,1.71.497,1.52.95,2.938,2.003,4.342,3.085.365-2.661-.965-3.275-2.748-4.693l2.207.833c.205-1.93,0-3.567-2.207-3.859l1.623-.57c.029-.979.176-2.047.015-2.997-1.213-7.017-1.93-14.678-2.748-22.046-.146-1.345.512-3.406-.526-4.415l-39.369-24.429v27.484l11.812,8.245-2.149-.877-9.663-6.739v3.728c7.558,4.897,15.058,9.868,22.455,14.999,3.83,2.661,8.143,5.511,11.388,8.713-.965.132-1.608-.687-2.368-1.199-3.801-2.573-7.427-5.468-11.228-8.055-6.695-4.576-13.464-9.035-20.247-13.449v2.251c13.64,9.093,27.206,18.274,40.451,27.908l-.263.819c-13.143-9.649-26.621-18.786-40.188-27.805v2.222c.365.278.716.556,1.067.789,7.763,4.97,15.438,10.306,23.04,15.525,4.225,2.909,8.742,5.848,12.499,9.268-1.433-.278-2.836-1.477-4.035-2.295-10.862-7.412-21.549-15.087-32.571-22.265v1.667l44.588,31.709c1.067-1.813-.819-3.026-1.93-4.137ZM141.087,541.048l-3.596-3.289c1.009-.044,1.915.848,2.704,1.418.658.482,7.003,5.424,6.652,5.731l-5.76-3.859Z" fill="none" stroke="#fff" stroke-miterlimit="10"/>
    <path d="M108.048,516.838v-27.484l-58.71-36.445,5.058,30.466,3.202,2.31-2.748-.819c.234,1.111.687,4.707,1.389,5.497,1.038,1.184,4.868,2.383,6.272,3.626,15.043,10.35,30.335,20.335,45.539,30.466v-2.251c-8.348-5.409-16.724-10.76-25.057-16.169-2.982-1.944-6.228-3.918-8.859-6.286l2.149.863c10.526,6.944,21.198,13.713,31.767,20.584v-3.728l-2.514-1.754,2.149.877.365.248ZM70.331,497.76c-3.055-1.754-7.193-4.43-10.029-6.506-.556-.409-1.477-.643-1.608-1.433,2.266.702,4.561,2.339,6.579,3.626,2.412,1.52,5.131,3.216,7.207,5.19-.936.176-1.447-.482-2.149-.877ZM103.165,511.195l-9.21-5.95c1.082-.029,2.017.716,2.924,1.213,3.626,1.974,7.69,4.459,10.862,7.046l-4.576-2.31Z" fill="none" stroke="#fff" stroke-miterlimit="10"/>
    <path d="M36.268,330.152l71.78,30.379v-14.678l-82.963-32.615,23.975,137.463c19.721,12.251,39.296,24.779,58.988,37.089v-117.552l-72.891-32.074c-.629-.716-1.959-6.491-1.769-7.236.263-1.053,1.988-1.053,2.88-.775ZM88.999,397.81l3.845,1.126-.804,2.164c-1.579-.789-3.377-1.038-3.041-3.289Z" fill="none" stroke="#fff" stroke-miterlimit="10"/>
    <path d="M216.273,260.069c-.95,4.21-2.661,7.47-6.096,10.146-18.464,12.178-40.027,21.183-58.535,32.937-16.958,10.774-23.23,31.431-19.107,50.582l-24.487-9.839v-12.09l12.558,4.722c.614-.175,1.301-.512,1.754-.95,1.652-1.608,1.564-7.427,2.061-10.073,1.857-9.883,6.096-16.388,13.069-23.317.439-.439,1.184-.614,1.491-.95,1.126-1.243.863-3.012-.804-3.567-10.131-2.588-20.043-6.169-30.13-8.932v-5.614l39.208,11.534c3.582.614,8.245-2.515,11.549-4.181,12.543-6.359,25.759-13.479,38.01-20.394,3.947-2.222,7.894-5.087,1.52-7.777-15.394-3.275-30.656-7.514-46.211-9.926l-44.077,21.256v-17.718c.833-.088,1.637-.248,2.441-.541,1.623-.585,11.476-4.927,11.856-5.745.278-.629-.702-4.035-1.754-4.342-3.172-.336-8.435-2.427-12.543-3.158v-4.839l108.225,22.776Z" fill="none" stroke="#fff" stroke-miterlimit="10"/>
    <path d="M239.649,107.489c-5.994-.775-15.642-.146-22.016-.058-27.294.365-54.675,2.178-82.072,1.667-6.973.658-10.029,5.672-11.037,12.105l-16.476,82.247v33.171l108.225,22.908,30.276-141.951c-.088-4.78-1.55-9.385-6.9-10.087ZM231.112,134.125c-.629,5.672-2.763,13.318-3.976,19.166-6.199,29.881-12.324,60.64-19.385,90.258-.336,1.374-.804,4.649-1.93,5.234l-96.164-18.449-.234-2.441,19.809-94.805c.38-1.55,2.017-2.748,3.567-2.778,1.55-.044,3.231.731,5.029-.219l92.232.219c1.36.877,1.213,2.339,1.053,3.816Z" fill="none" stroke="#fff" stroke-miterlimit="10"/>
    <path d="M177.157,408.279c-1.221,2.05-13.567,2.843-16.511,3.325-.656,7.574-2.505,14.863-4.981,22.016-1.03.118-.453-1.126-.305-1.682,1.68-6.287,4.588-12.555,4.164-19.251-.994-1.029-11.765,4.96-13.772,4.958,1.279-1.243,1.837-1.524,3.481-2.304,9.688-4.595,17.831-4.941,27.924-7.062Z" fill="none" stroke="#fff" stroke-miterlimit="10"/>
    <path d="M204.155,51.807c0,1.12-14.506,13.243-15.965,15.716-.556.736-1.578.912-2.217,1.364,3.862-3.916,8.244-8.996,12.661-12.959,1.583-1.421,3.749-3.272,5.521-4.121Z" fill="none" stroke="#fff" stroke-miterlimit="10"/>
    <path d="M219.022,469.984c.526,3.231-.468,6.608-.57,9.619-.278,8.83.38,18.289-.512,27.031-.365,3.479-2.281,5.204-4.707,7.427-15.92,12.075-31.007,25.247-46.825,37.454-1.36,1.053-7.076,5.818-8.245,5.526-.629-.161-.95-1.286-.848-1.93l-3.187-32.44c.088-.453,2.091-2.368,2.631-2.836,4.4-3.786,9.327-7.485,12.382-12.412,3.479-2.924,7.953-5.555,11.271-8.552.629-.57,1.374-.833,1.155-1.886-9.356,6.608-18.391,13.64-26.724,21.475l-.819-.819c5.16-4.166,10.043-8.698,15.145-12.938,2.573-2.134,6.228-4.108,8.567-6.315,1.272-1.228,1.754-3.406,3.83-3.611l-1.096-.819,1.637-2.485c-.906.936-2.821,1.93-3.552,2.778-3.772,4.4-7.134,8.742-13.26,10.423l-11.564,9.386c-.526-.146-.322-1.462-.19-1.857.292-.877,7.324-4.985,8.216-6.652,7.09-3.275,12.324-12.192,19.268-15.482,1.52-.731.205,1.155,2.441-1.374,1.184-1.345,2.588-2.661,4.152-3.552-1.403-1.93-2.222,1.827-3.845,1.374l-.278-1.652-28.653,20.379-.351-1.038-1.023-.336,30.291-20.394-.263-.819-6.622,4.4c-1.184.132-.994-.175-.278-.833,2.047-1.886,4.707-2.778,6.622-4.663l-8.552,3.304-.57-1.14c-1.827-.278-4.707,2.968-6.111,3.275-.643.146-1.184-.439-1.301-1.038,3.202-.687,5.731-3.479,8.304-5.204,1.71-1.17,3.684-2.12,5.438-3.377.877-.629,2.909-3.45,2.792-.789l-.307,1.082,24.545-17.879c-.512-.892-1.228.205-1.696.497-3.699,2.281-6.769,5.38-10.57,7.5-1.535,1.564-4.722,4.108-6.754,4.941-.248.102-.892.146-.804-.263.746-.439,1.067-1.857,1.623-2.193.263-.161,1.053.205,1.959-.219,3.435-1.637,10.497-8.406,14.327-11.096.848-.599,2.149-.292,1.93-1.637h1.096l.263,1.082,2.485-2.471-1.096-.819c3.392-.146,6.14-3.786,9.093-5.511l.19,6.257-2.675,2.544,2.748-1.082-.672,3.216-.98.088v.541l1.126.336v7.558l-6.637,5.321c1.301.322,6.359-4.707,6.608-4.4Z" fill="none" stroke="#fff" stroke-miterlimit="10"/>
    <path d="M230.059,12.977c-.234,4.152-.877,8.508-1.111,12.66-.351,5.848,1.33,14.853-4.43,18.712-1.988,1.33-5.073,1.535-7.47,1.886-21.753,3.245-43.799,4.897-65.523,8.362-4.254.439-5.19-5.277-5.263-8.567-.044-1.594.599-2.895.614-4.386.102-5.643-.526-12.192-.029-17.66.365-3.874,2.588-7.821,6.491-8.947L222.209,2.363c7.046-.833,8.157,4.766,7.85,10.613Z" fill="none" stroke="#fff" stroke-miterlimit="10"/>
    <path d="M231.111,264.545c-.938,4.021-1.782,8.196-2.169,12.323-.183,1.951.125,4.079.011,6.072-3.111,54.554-1.95,109.58-4.99,164.155-.419,3.634.653,8.731.031,12.152-.209,1.151-.706,1.517-1.931,1.4-1.975-.189-.818-1.644-.798-3.026.901-61.334,2.96-122.707,4.433-183.996,1.007-2.926.737-7.09,1.701-9.869.793-2.284,2.284.601,3.712.79Z" fill="none" stroke="#fff" stroke-miterlimit="10"/>
    <path d="M231.147,263.926l-3.325-2.521,27.536-137.753c.042-1.147-.941-4.501-1.502-5.571-.671-1.28-2.472-2.479-2.868-3.743-.331-1.056,3.321.787,3.823,1.136,3.824,2.658,4.273,6.554,3.832,10.932l-27.496,137.52Z" fill="none" stroke="#fff" stroke-miterlimit="10"/>
    <path d="M136.935,354.286l14.346,156.657c-.859.508-2.692,2.586-2.767.642-.34-8.848-1.847-19.124-2.754-28.108-4.001-39.659-7.931-79.305-11.57-119.008-.132-1.439-1.439-8.489-1.055-9.03l3.8-1.153Z" fill="none" stroke="#fff" stroke-miterlimit="10"/>
    <path d="M151.898,544.982l1.015-.07c-1.225-1.442-2.114-4.633.001-5.227l-1.674-1.193-2.735-24.413,3.306-1.115c.075,1.179-.122,2.408-.003,3.585,1.1,10.953,2.024,22.027,3.319,33.044.244,2.077-.192,9.595,3.01,9.654,2.211-.754,4.176-2.463,6.061-3.872,17.967-13.426,34.667-28.68,52.635-42.131,1.051-1.53,2.313-3.217,2.622-5.092,1.502-9.104-.195-18.83,1.254-27.946l-.027-17.932,3.303-.551c.088,2.674-.487,5.297-.559,7.953-.286,10.508.071,21.567-.533,31.997-.266,4.589-.864,9.565-3.87,13.21-19.365,16.641-39.381,32.677-59.355,48.642-4.701,1.817-5.355-2.096-6.06-5.796-.785-4.117-.418-8.668-1.71-12.745Z" fill="none" stroke="#fff" stroke-miterlimit="10"/>
    <path d="M219.036,446.023l-35.817,25.072c-.687-.848,1.389-8.274-1.652-8.274v-.541c1.301-.424,2.661-1.243,3.816-1.974,6.491-4.152,17.674-13.786,23.873-16.344,1.535-.629,3.684-.599,5.482-1.126,1.725-.512,3.172-1.593,4.839-2.047-.234,1.535.614,4.035-.541,5.234Z" fill="none" stroke="#fff" stroke-miterlimit="10"/>
    <path d="M231.154,42.438c.646-2.071,1.467-4.13,1.653-6.332.559-6.609.737-13.73,1.105-20.383.136-2.459-.333-5.026.264-7.437,6.324,1.439,6.657,3.599,6.348,9.641-.295,5.768-.497,11.884-1.098,17.635-.532,5.091-3.461,6.715-8.272,6.876Z" fill="none" stroke="#fff" stroke-miterlimit="10"/>
    <path d="M208.56,415.443c.325,1.888.319,2.726-.557,4.404l-2.191-1.102c.152,1.451-.696,2.154-1.647,3.043-3.79,3.539-8.274,6.445-12.143,9.895-2.697,2.406-5,5.322-7.69,7.737-3.383,3.036-7.104,5.411-9.939,8.224-1.793,1.779-3.449,3.763-5.495,5.263-.094-1.248,1.198-1.993,1.643-3.039.654-1.539-1.716.458-1.089-1.085,1.053-2.594,2.944-5.007,3.87-7.702,10.999-7.426,21.235-15.91,31.995-23.652.529-.38,2.866-2.428,3.245-1.986Z" fill="none" stroke="#fff" stroke-miterlimit="10"/>
    <path d="M217.931,102.497l-3.858-.005c.031-.857.5-1.602.563-2.464.807-11.135.036-22.945,1.083-34.091,1.892-.954,1.936-3.68,3.859-4.765l-1.647,41.324Z" fill="none" stroke="#fff" stroke-miterlimit="10"/>
    <path d="M165.587,483.485l-13.493,9.65c-1.06.096-.789.018-.831-.822-.058-1.153-.231-3.197.265-4.154.469-.906,7.154-4.811,8.687-6.071.761-.626,1.952-1.941,2.617-2.731-.928-.183-1.448.475-2.151.876-3.163,1.801-6.595,4.252-9.146,6.832-.93-1.386-1.29-2.616-.011-3.872,1.7-1.669,5.814-3.735,7.964-5.255,2.075-1.468,3.994-3.218,6.099-4.645v10.193Z" fill="none" stroke="#fff" stroke-miterlimit="10"/>
    <path d="M220.58,405.427l-45.623,33.154c-.342-5.407,6.114-7.586,9.876-10.23,11.862-8.336,23.757-16.632,35.576-25.029l.17,2.105Z" fill="none" stroke="#fff" stroke-miterlimit="10"/>
    <path d="M108.836,613.785l-71.072-61.151c1.053-.252,1.301.603,1.926,1.1,2.027,1.612,4.068,3.301,6.056,4.963,15.071,12.61,29.742,25.741,44.642,38.553,5.598,4.814,12.062,9.527,17.36,14.596.594.568,1.277.988,1.088,1.938Z" fill="none" stroke="#fff" stroke-miterlimit="10"/>
    <path d="M220.034,417.006c-.373.583-3.886,2.275-4.593,2.833-4.71,3.719-9.01,17.287-1.952,20.702l3.336.79-4.166,1.087c-.413.096.195-1.446-1.062-1.085-.646.186.196,1.303-.827,1.103l-.828-2.205-.286,1.648c-2.984.196-4.342-.934-3.3-3.853l-1.096.561c-.724-3.333.969-4.149,3.853-4.971l-.271-1.092-3.583,1.647c.247-8.402,7.526-15.167,14.602-18.727.512.06.347,1.288.173,1.561Z" fill="none" stroke="#fff" stroke-miterlimit="10"/>
    <path d="M246.026,163.652l-1.226-.708-2.625-5.351c-.626,2.301,3.235,6.622,3.267,7.955.021.888-.526,4.43-1.613,4.714l-4.318-10.863,2.114-12.277c1.627,1.502,2.312,4.387,3.201,6.437.434,1,2.09,3.368,2.173,3.832.247,1.374-1.46,4.497-.973,6.26Z" fill="none" stroke="#fff" stroke-miterlimit="10"/>
    <path d="M136.309,352.558l-3.226,1.174c.462-2.723-.469-5.425-.579-7.961-.452-10.383,1.553-21.356,8.286-29.502-.595,2.499-2.244,4.633-3.174,7.015-3.897,9.979-1.912,18.975-1.307,29.275Z" fill="none" stroke="#fff" stroke-miterlimit="10"/>
    <path d="M246.028,133.349c-.247-1.349-.6-2.571-.437-3.983.318-2.753,1.78-6.096,2.093-8.958l1.095.273c.251-1.015-.817-1.569-.872-2.456-.07-1.131.478-2.962.598-4.157,1.208.803.544,2.396,1.088,3.359.275.487,1.175.023,1.682.443.515.427,1.874,2.343,1.091,2.806l-1.375-1.1c.732,2.842,2.931,4.905,2.196,8.264l-1.384-1.643-2.465-4.416c-.429,2.28,3.175,5.863,3.313,7.453.068.779-.496,2.591-.581,3.828-.071,1.046.195.903-1.076.837l-2.108-5.335-1.751-2.927c.245,1.969,1.307,4.047,2.099,5.884.434,1.005,2.089,3.365,2.173,3.833.169.941-1.05,5.747-1.799,6.809-1.546-2.452-1.643-6.025-2.999-8.48-.205-.37-.561-.306-.58-.333.882,4.815,3.674,8.894,3.302,13.774-1.125-.5-1.466-2.236-1.905-3.325-.618-1.533-2.784-6.907-2.957-8.09-.157-1.069.669-2.293.463-3.459.486-.085.775.649,1.098,1.1Z" fill="none" stroke="#fff" stroke-miterlimit="10"/>
    <path d="M231.148,238.582l-1.383-1.643-4.669-8.823c.431,4.032,4.487,8.258,5.216,12.069.164.858-.275,3.112-1.359,3.356-.542-3.98-5.307-9.133-4.931-12.884.238-2.375,1.749-4.974,1.624-7.498l5.821,11.008-.319,4.417Z" fill="none" stroke="#fff" stroke-miterlimit="10"/>
    <path d="M232.25,233.073c-.681-.05-.912-.772-1.205-1.271-.956-1.626-4.461-8.187-4.757-9.599-.49-2.337,1.418-4.874,1.01-7.312.685.051.911.772,1.204,1.272.803,1.367,4.612,8.61,4.764,9.593.246,1.592-1.905,5.082-1.017,7.317Z" fill="none" stroke="#fff" stroke-miterlimit="10"/>
    <path d="M239.412,196.707l-4.118-7.722-1.384-1.643c.594,3.494,5.117,8.415,4.835,11.678-.039.454-.278,2.741-.978,2.644l-4.728-11.557,1.421-8.826c.812.063.851.832,1.106,1.37.865,1.83,4.053,8.619,4.319,10.054.25,1.349-.644,2.623-.474,4.001Z" fill="none" stroke="#fff" stroke-miterlimit="10"/>
    <path d="M226.748,255.662c-1.217-6.223-6.686-10.867-4.408-17.629l5.975,11.975c-.314,1.684.049,4.783-1.567,5.654Z" fill="none" stroke="#fff" stroke-miterlimit="10"/>
    <path d="M214.072,558.144l-3.294,3.589-31.412,27.261.803-2.224c10.808-8.974,21.191-18.52,31.974-27.53.626-.523.895-1.333,1.93-1.096Z" fill="none" stroke="#fff" stroke-miterlimit="10"/>
    <path d="M172.75,485.968c-1.677,2.566-5.377,3.655-7.687,5.282-.864.609-3.253,3.38-3.897,3.792-.67.429-1.706.224-2.534.812-.551.391-.533,2.641-2.41,3.06l2.2-.004-6.055,4.685c.111-1.09-.259-2.513.072-3.518.231-.701,1.1-.711,1.393-1.066,2.316-2.813,8.241-6.908,11.573-9.096,2.203-1.446,4.847-3.218,7.344-3.947Z" fill="none" stroke="#fff" stroke-miterlimit="10"/>
    <path d="M163.938,467.782c-.591-.717,2.082-4.45.825-5.507-2.581,1.467.149,6.377-3.029,6.607l-.549-3.851c-.778,1.149-.261,3.699-.56,4.403-.022.053-.368-.018-.543,0l-.551-3.302-.082,4.603-3.224,2.557c-.062-1.265.991-2.15,1.383-3.296s.18-2.459.871-3.537c.469-.732,4.177-3.455,5.19-4.196,1.007-.737,2.126-.459,2.746-2.192l.196,5.705-2.673,2.006Z" fill="none" stroke="#fff" stroke-miterlimit="10"/>
    <path d="M220.132,255.111c-.4-1.851-.719-3.084-.29-4.982.112-.495.174-1.238.837-1.076l5.433,11.972-.474,4.001-4.933-9.569c-.05-.32-.534-.296-.573-.347.807,3.736,4.691,8.749,4.963,11.338.075.711-.083,2.901-1.101,2.984-.765-1.426-.948-3.932-1.645-5.144-.443-.77-1.615-1.384-2.331-3.302-.371-.994.217-2.975-1.538-2.566,1.084,5.224,5.545,9.366,5.505,14.87l-6.476-11.369,1.526-7.91c.495-.072.741.629,1.098,1.1Z" fill="none" stroke="#fff" stroke-miterlimit="10"/>
    <path d="M197.543,430.317c.961-.127.538,1.258.551,1.924.026,1.313-.262,2.958.274,4.134,1.616-1.194.367-2.684.256-4.137-.157-2.058.373-3.151,2.221-4.125l.572,10.102-4.152,2.589c-1.052,2.377-.036,5.295-3.024,6.592-.011-1.241.17-2.892,1.646-2.759l.002-.543-1.102-.007c.559-.99,1.518-1.611,1.034-2.925-.465-1.002-1.14-1.529-2.131-.926-.371-1.427.591-2.89.575-4.135-.011-.847-.579-1.573-.597-2.158-.008-.264,1.443-.48,1.126-1.419,1.027-.11.486,1.17.4,1.775-.179,1.271-.491,1.909-.375,3.41.038.484.292,2.087,1.071,1.975v-7.713c.78-.067.999,2.013,1.049,2.533.121,1.274.031,2.534.051,3.809.011.663-.404,2.051.553,1.922v-9.917Z" fill="none" stroke="#fff" stroke-miterlimit="10"/>
    <path d="M225.091,46.293c1.173-1.653,2.811-2.929,3.762-4.774,2.664-5.17,1.903-18.829,2.293-25.255.057-.938.496-1.805.562-2.744.089-1.278-.025-2.583-.006-3.867.01-.659-.403-2.055.548-1.922l.009,10.196-.562,2.744c-.587,6.699.916,17.25-3.054,22.841-.415.584-2.925,3.34-3.552,2.78Z" fill="none" stroke="#fff" stroke-miterlimit="10"/>
    <path d="M243.822,175.22c-1.456.288-.944-.334-1.36-1.09-.983-1.786-4.18-8.521-4.117-10.145.041-1.06.863-2.365.525-3.637l4.837,10.859.115,4.013Z" fill="none" stroke="#fff" stroke-miterlimit="10"/>
    <path d="M240.514,191.749l-5.416-11.962.465-4.012c.763-.068.905,1.218,1.185,1.838,1.055,2.337,3.568,7.567,4.079,9.727.292,1.236-.693,2.986-.313,4.409Z" fill="none" stroke="#fff" stroke-miterlimit="10"/>
    <polygon points="228.944 249.049 222.97 237.075 223.442 233.626 229.371 244.997 228.944 249.049" fill="none" stroke="#fff" stroke-miterlimit="10"/>
    <path d="M242.718,180.732c-.785-.133-1.073-1.01-1.395-1.631-.745-1.436-3.788-7.597-4.016-8.688-.341-1.631.57-2.956.461-4.554l4.839,10.306.111,4.568Z" fill="none" stroke="#fff" stroke-miterlimit="10"/>
    <path d="M237.207,206.073l-5.377-10.819.427-4.054c.835.14,1.06,1.011,1.368,1.658.862,1.815,4.17,9.314,4.164,10.74-.004.882-.46,1.632-.582,2.475Z" fill="none" stroke="#fff" stroke-miterlimit="10"/>
    <path d="M241.616,185.69c-.785-.133-1.072-1.01-1.395-1.631-.645-1.24-3.867-8.363-4.028-9.243-.227-1.242.461-2.249.473-3.449l4.701,9.342.249,4.981Z" fill="none" stroke="#fff" stroke-miterlimit="10"/>
    <path d="M233.903,224.257c-.838-.126-1.025-1.042-1.384-1.643-.926-1.552-4.714-8.914-4.652-10.14.04-.787.63-1.666.534-2.54l5.251,10.445.251,3.878Z" fill="none" stroke="#fff" stroke-miterlimit="10"/>
    <path d="M248.227,152.08c-.762.068-.906-1.219-1.185-1.838-.861-1.911-3.379-7.375-3.686-9.036-.251-1.362.642-2.624.47-3.998.793-.128.724.928.955,1.514.69,1.749,3.757,8.853,3.91,9.896.156,1.064-.673,2.297-.465,3.462Z" fill="none" stroke="#fff" stroke-miterlimit="10"/>
    <path d="M226.74,260.068l-5.942-11.959c-.253-1.177-.407-2.598.714-3.464,1.617,5.136,5.535,9.869,5.228,15.423Z" fill="none" stroke="#fff" stroke-miterlimit="10"/>
    <path d="M166.689,499.191c-1.077.715-1.398,2.723-1.775,3.175-.416.499-2.141.394-2.48,1.769l-9.517,6.62v-2.756c2.07,1.32,3.148-1.695,4.681-2.782,1.831-1.299,3.426-2.183,5.515-3.82.549-.43,3.165-2.579,3.575-2.206Z" fill="none" stroke="#fff" stroke-miterlimit="10"/>
    <path d="M202.502,435.827l1.604.027.204,4.223-3.739,2.91c-1.438-3.339,1.202-3.786,3.031-5.784l-1.647.277c-.071-2.104.084-4.233.005-6.341-.054-1.416-1.524-3.317.543-4.127v8.815Z" fill="none" stroke="#fff" stroke-miterlimit="10"/>
    <path d="M236.106,213.787l-5.774-10.962.273-3.36c.755-.125.742.88,1.01,1.46,1.838,3.984,4.462,8.527,4.492,12.862Z" fill="none" stroke="#fff" stroke-miterlimit="10"/>
    <path d="M246.583,155.937l-4.132-9.86.275-3.361c.757-.125.74.879,1.01,1.46.644,1.384,3.986,9.074,3.999,9.829.014.833-.221,1.731-1.151,1.932Z" fill="none" stroke="#fff" stroke-miterlimit="10"/>
    <path d="M155.85,478.444c-.681.529-1.491,2.24-2.933,2.008-.778-2.913,2.051-6.721,4.954-5.499l.55-1.66c-.087,1.198.307,2.784-.258,3.867-.516.988-1.704.812-2.312,1.284Z" fill="none" stroke="#fff" stroke-miterlimit="10"/>
    <path d="M204.154,457.869c-.717,1.234-2.214,2.114-3.359,2.973-4.071,3.053-8.271,6.133-12.441,9.047-1.18.825-2.627,2.027-4.035,2.297,5.021-4.425,10.596-8.472,16.13-12.24,1.101-.75,2.39-1.892,3.704-2.077Z" fill="none" stroke="#fff" stroke-miterlimit="10"/>
    <path d="M219.578,437.48c.472,3.36-5.069,3.012-6.899,1.667-2.558-1.88-1.837-6.019-1.908-8.827l1.356,5.525c1.439,3.325,4.614,3.232,7.451,1.636Z" fill="none" stroke="#fff" stroke-miterlimit="10"/>
    <path d="M191.48,451.255c.803,4.338-1.253,4.507-4.13,6.602-1.218.042-.477-3.773-.148-4.272.134-.203,4.056-2.574,4.278-2.33Z" fill="none" stroke="#fff" stroke-miterlimit="10"/>
    <path d="M150.709,384.038c.1.95-.179,2.041-.002,2.948.057.29,1.737.533,1.109,2.006l.823-4.41,1.371,4.386-5.501,2.227.002-4.955,1.093,3.852c.136-.842.568-1.507.53-2.418-.044-1.055-1.699-4.03.575-3.638Z" fill="none" stroke="#fff" stroke-miterlimit="10"/>
    <polygon points="218.476 273.293 214.896 269.438 215.172 271.638 209.666 272.468 215.444 267.235 218.476 273.293" fill="none" stroke="#fff" stroke-miterlimit="10"/>
    <path d="M232.247,196.71c1.026,4.349,4.457,8.137,4.41,12.669l-5.395-10.854c-.21-1.15-.569-2.128.984-1.815Z" fill="none" stroke="#fff" stroke-miterlimit="10"/>
    <path d="M166.689,296.988l-1.643,1.383-17.09,9.628c4.156-3.865,9.975-6.751,15.051-9.463,1.118-.597,2.421-1.428,3.682-1.549Z" fill="none" stroke="#fff" stroke-miterlimit="10"/>
    <path d="M230.05,207.729c-.291-1.012-1.467-3.783.544-3.305l4.963,11.567c-1.45.285-.946-.324-1.361-1.089-1.063-1.959-2.532-6.098-4.146-7.174.971,3.377,4.048,7.159,4.727,9.914.226.915-.195,1.381-.324,2.204l-5.249-10.445-.251-2.224c.083-.098.844.382,1.098.551Z" fill="none" stroke="#fff" stroke-miterlimit="10"/>
    <polygon points="220.581 408.731 214.927 412.72 213.525 411.577 220.41 406.077 220.581 408.731" fill="none" stroke="#fff" stroke-miterlimit="10"/>
    <path d="M206.909,103.042l6.057-6.057c.534,3.628-2.431,6.59-6.057,6.057Z" fill="none" stroke="#fff" stroke-miterlimit="10"/>
    <path d="M222.336,274.946c-1.718-4.307-4.973-7.616-5.506-12.121.839.126,1.025,1.042,1.383,1.643,1.097,1.838,5.292,9.234,5.768,10.762.088.281.15.901-.267.816-.341-.516-.978-.746-1.379-1.1.397.997.97,1.778,1.098,2.755-2.121-1.244-3.088-3.774-4.502-5.687l-3.206-6.432c1.447-.284.947.32,1.362,1.088,1.319,2.444,3.281,6.54,5.248,8.276Z" fill="none" stroke="#fff" stroke-miterlimit="10"/>
    <path d="M163.934,507.455c-2.884,3.713-7.025,6.207-10.464,9.362-.26-1.471.699-2.171,1.639-3.04,1.538-1.42,3.845-3.072,5.578-4.339.983-.719,2.044-1.896,3.247-1.983Z" fill="none" stroke="#fff" stroke-miterlimit="10"/>
    <path d="M188.176,446.299c-.648,2.333.467,6.852-2.752,7.157.735-2.866-1.248-6.405,2.752-7.157Z" fill="none" stroke="#fff" stroke-miterlimit="10"/>
    <path d="M174.95,461.72c-.963.128-.52-1.248-.549-1.92-.109-2.528-.213-4.949-.546-7.449l1.104-.268-1.137-.589c-.298-1.604.886-2.852,2.23-3.545-.858,4.538-1.265,9.15-1.102,13.772Z" fill="none" stroke="#fff" stroke-miterlimit="10"/>
    <path d="M145.742,393.376l-2.192.576c.555-1.384-.148-2.935-.035-4.118.172-1.802,1.523-.844,1.61-.919.557-.483.107-2.662,1.174-2.672.597,2.725-1.288,4.597-.557,7.134Z" fill="none" stroke="#fff" stroke-miterlimit="10"/>
    <path d="M162.73,474.296c-.152.217-2.713,1.647-3.2,2.301l.059-4.368c1.654.287,1.722-1.383,3.239-1.693-.176.95.342,3.13-.098,3.759Z" fill="none" stroke="#fff" stroke-miterlimit="10"/>
    <path d="M171.091,479.903c-2.108.421-.737-2.309-.724-3.481.016-1.472-.825-2.984.184-4.781,1.885.642,1.186,7.43.54,8.263Z" fill="none" stroke="#fff" stroke-miterlimit="10"/>
    <path d="M178.806,449.599l-1.647-1.098c-.528,3.54,1.638,7.049.275,10.464l-.834-5.777.561-6.339,1.093,1.097,1.102-2.202-.551,3.855Z" fill="none" stroke="#fff" stroke-miterlimit="10"/>
    <polygon points="160.628 489.274 158.693 491.466 151.815 496.43 152.493 494.625 160.628 489.274" fill="none" stroke="#fff" stroke-miterlimit="10"/>
    <path d="M153.283,474.278c-.133.198-1.033.052-.885,1.489l-2.234,3.583c-.344-3.301-.092-5.101,3.029-6.607.551.106.339,1.165.09,1.534Z" fill="none" stroke="#fff" stroke-miterlimit="10"/>
    <path d="M194.786,441.338c1.081.996-5.301,5.093-6.057,4.404-.271-1.199.648-1.225,1.265-1.762.643-.559,4.192-3.195,4.792-2.642Z" fill="none" stroke="#fff" stroke-miterlimit="10"/>
    <path d="M172.748,465.03l-.649,3.748-2.653.656c.103-2.032.968-4.496,3.302-4.404Z" fill="none" stroke="#fff" stroke-miterlimit="10"/>
    <path d="M209.666,415.439c-.175-2.577,2.95-4.434,4.398-1.926-1.125,1.376-2.568,2.158-4.398,1.926Z" fill="none" stroke="#fff" stroke-miterlimit="10"/>
    <path d="M177.157,476.051c-.973,1.745-2.93,2.607-4.403,3.852-.338-2.358,1.928-5.152,4.403-3.852Z" fill="none" stroke="#fff" stroke-miterlimit="10"/>
    <polygon points="192.032 445.747 191.478 448.504 190.384 447.944 190.66 450.171 188.73 451.252 188.826 448.042 192.032 445.747" fill="none" stroke="#fff" stroke-miterlimit="10"/>
    <polygon points="169.444 55.667 165.591 59.52 165.589 55.665 169.444 55.667" fill="none" stroke="#fff" stroke-miterlimit="10"/>
    <path d="M167.244,465.578l.27-7.16c1.073,1.616,1.944,6.488-.27,7.16Z" fill="none" stroke="#fff" stroke-miterlimit="10"/>
    <path d="M124.144,369.566c-.205-1.184-.731-2.588-1.93-3.041l-14.166-5.994-71.78-30.379c-.892-.278-2.617-.278-2.88.775-.19.746,1.14,6.52,1.769,7.236l72.891,32.074,14.926,6.564c1.944.322,1.403-5.877,1.17-7.236ZM120.942,374.419l-12.894-5.716-71.97-31.87-.512-2.938c24.399,9.649,48.345,20.408,72.482,30.715,4.663,2.003,9.342,3.976,14.02,5.921l1.096,4.137-2.222-.248Z" fill="none" stroke="#fff" stroke-miterlimit="10"/>
    <path d="M127.393,428.183c3.362-.985,6.691,6.571,3.102,7.571-3.71,1.034-6.979-6.436-3.102-7.571Z" fill="none" stroke="#fff" stroke-miterlimit="10"/>
    <path d="M188.883,357.455c.099.183.746.181.95.503.735,1.159,1.081,5.56-.285,6.24-1.815.903.116-2.256.187-2.586.414-1.928-.129-3.105-2.078-3.518.474-1.062.961-2.032-.374-2.646-3.279-1.053-3.88,2.783-5.172,3.527-.607.349-1.302.119-1.812.277-.747.232-.003,1.308-.934,1.091-.641-2.786,2.134-1.817,2.664-2.29.189-.169.06-1.182.638-1.826.571-.636,3.203-1.904,4.048-1.812,2.352.255,1.609,2.007,2.167,3.04Z" fill="none" stroke="#fff" stroke-miterlimit="10"/>
    <path d="M216.149,346.152c.84.831.673,3.118.681,4.276,1.865-1.174,3.449-.033,3.298,2.204-1.464-1.214-2.293-2.048-4.404-1.656.873-1.466.325-3.205-.832-4.403-1.033-.235-1.863,1.892-2.856,2.125-.819.192-1.892-.688-2.92.077-.384-1.971,1.918-.685,3.302-1.377.709-.355,1.14-1.551,2.008-1.844.397-.079,1.434.313,1.723.598Z" fill="none" stroke="#fff" stroke-miterlimit="10"/>
    <path d="M206.909,357.594c.181.17-1.775,1.992-1.991,2.738-.328,1.133.444,1.995.09,2.757-1.214,2.61-8.086,3.242-4.711,8.271l-1.095.003c-2.492-5.427,2.53-5.568,4.441-7.948,1.148-1.429-.417-5.516,3.266-5.821Z" fill="none" stroke="#fff" stroke-miterlimit="10"/>
    <path d="M189.278,406.63c-2.792,2.703.053,6.457-4.95,6.34l-2.761,3.02c-.029-1.233,1.492-3.304,2.451-3.881.894-.539,2.458-.512,2.823-1.034.698-1-.529-4.515,2.438-4.445Z" fill="none" stroke="#fff" stroke-miterlimit="10"/>
    <path d="M159.523,316.268c-1.516-.986-2.465-2.196-4.313-1.001.1,4.577-3.297,3.896-6.7,4.304-.138-.743.991-.846,1.515-.954.963-.198,3.339-.144,3.877-.813.57-.709.21-3.214,1.559-3.67,1.773-.395,4.011-.052,4.062,2.136Z" fill="none" stroke="#fff" stroke-miterlimit="10"/>
    <path d="M189.83,381.278c.519-1.392,2.504-1.396,3.344-2.434,2.071-2.559-1.374-4.15-3.628-2.528l-.269-1.091c7.055-2.361,6.651,5.587.553,6.053Z" fill="none" stroke="#fff" stroke-miterlimit="10"/>
    <path d="M169.995,362.553c-2.193,1.637-1.635,4.258-2.491,6.045-.329.685-1.417,1.24-1.929,1.928-.621.835-.496,2.184-1.636,2.492-.547-2.437,2.33-3.6,3.031-4.988.556-1.101-.201-5.393,3.026-5.476Z" fill="none" stroke="#fff" stroke-miterlimit="10"/>
    <path d="M216.825,386.793c.269,1.41-.272.961-1.078,1.372-2.842,1.448-5.866,1.512-5.535,5.789-1.942-.608-.518-3.146.524-4.162l6.089-2.998Z" fill="none" stroke="#fff" stroke-miterlimit="10"/>
    <path d="M196.992,396.161c-2.538,2.408-4.092,3.434-5.798,6.62-.414.772.082,1.372-1.364,1.086,1.383-3.147,3.558-6.908,7.162-7.706Z" fill="none" stroke="#fff" stroke-miterlimit="10"/>
    <path d="M208.562,392.848l-1.972-2.234c-1.945-.188-3.217.056-4.366,1.686-1.158-1.792,3.701-3.07,4.896-2.718l1.442,3.267Z" fill="none" stroke="#fff" stroke-miterlimit="10"/>
    <path d="M230.059,130.309l-92.232-.219c-1.798.95-3.479.175-5.029.219-1.55.029-3.187,1.228-3.567,2.778l-19.809,94.805.234,2.441,96.164,18.449c1.126-.585,1.593-3.859,1.93-5.234,7.061-29.618,13.186-60.377,19.385-90.258,1.213-5.848,3.348-13.493,3.976-19.166.161-1.477.307-2.938-1.053-3.816ZM205.294,247.16l-.863.263-90.638-17.104,20.394-96.413h95.317l-24.209,113.254ZM134.465,132.254c-.146,0-1.681,1.55-1.813,2.047l-19.955,95.477-1.652-.015,20.657-98.065h94.22c.76,0,2.821-1.681,3.582.556h-95.039Z" fill="none" stroke="#fff" stroke-miterlimit="10"/>
    <path d="M98.823,263.197c-5.277-1.696-17.66-5.044-22.908-5.745-1.915-.248-3.874-.234-5.789-.015-7.894,3.362-16.315,5.95-24.092,9.532-12.441,5.701-20.087,19.253-18.683,32.995.629,6.155,2.997,6.403,8.07,8.464,5.804,2.354,11.871,4.108,17.616,6.637,1.594.453,3.158-.102,3.45-1.842.512-3.012-.278-7.222.015-10.453,1.959-22.66,23.566-27.367,40.407-35.612,1.915-.936,5.877-2.675,1.915-3.962ZM49.338,294.774l1.462-1.009,7.894-3.392c-2.193,2.529-6.125,3.801-9.356,4.4ZM48.168,292.391c-.877-3.406-1.33-15.555-1.067-19.4.073-.979-.088-1.798.863-2.456l1.374,23.142c-1.594.263-.921-.336-1.17-1.286ZM46.516,292.932c-.599-2.31-.921-6.915-1.038-9.444-.175-3.435-.175-7.587,0-11.023.044-.906.482-1.55,1.096-.819v14.049l1.111,8.523c-1.594.263-.921-.322-1.17-1.286ZM39.441,296.733c-.088.833-.117,1.696-1.126,1.9.658-6.403-1.286-13.259-.585-19.59.19-1.71,1.374-2.646,2.778-3.552.234,5.424.351,10.847.556,16.271.073,1.71,1.74,4.59-.541,5.774l-.556-12.952-1.096-7.427c-.789,6.286,1.199,13.45.57,19.575ZM31.283,296.792c.102-.468.819-.965.965-1.754.205-1.096-.015-2.631,0-3.845.015-.658-.395-2.047.556-1.915-.395,2.207.468,4.239.599,6.315.088,1.433-1.257,4.941,1.053,4.693.453-.906-.541-2.134-.541-2.471v-13.23c0-.219.687-.833.556-1.374h.541v11.842l1.096,4.137c-.044-3.582.073-7.178.015-10.745-.044-2.266-.862-4.24-.234-6.929.117-.497.614-2.222,1.33-2.164.556,5.965-.76,13.216,0,19.005.015.176.585.409.556.819l-6.067,2.222c.482-1.33-.585-3.713-.424-4.605ZM41.151,274.761l1.564-.921v9.108l.57,2.734c.058,2.207-.088,4.415-.015,6.622.029,1.111,1.579,4.079-.819,4.137l-1.301-21.68ZM44.367,272.188l1.506,22.338-1.491.804c-.468-4.854-.38-9.707-.556-14.605-.088-2.354-1.871-6.769.541-8.538ZM50.99,291.748c0,.117.409.292.424.556l-1.52.819c-.117-2.646.146-5.336,0-7.982-.058-1.082-.541-2.091-.585-3.275-.102-3.085-.307-7.602,0-10.526.219-2.091,1.681-3.055,1.681-.526,0,6.973-.073,13.961,0,20.935ZM54.849,307.449v3.304l-6.067-1.652c.292-1.652,5.745-1.988,6.067-1.652ZM52.101,283.445c-.248-4.634-.804-8.947-.57-13.742.058-.906.497-1.535,1.111-.819l.541,23.142c-.614.716-1.053.088-1.096-.819-.132-2.573.146-5.19.015-7.763ZM55.946,276.325c.292,4.02,1.038,7.251,1.096,11.593.015,1.213,1.199,2.427-1.096,2.456v-6.345l-1.096-7.426c.175,3.333-.248,6.871,0,10.189.044.746,1.886,4.503-.556,4.123.482-2.69-.439-5.511-.556-7.967-.175-3.552-.497-10.555,0-13.8.175-1.213,1.199-1.447,2.207-1.915.161,2.982-.219,6.14,0,9.093ZM58.972,289.263c-1.403.248-.702-1.082-.804-1.944-.76-6.842-1.389-13.757-1.667-20.642h1.652l-.015,9.108c.468,3.757,1.082,7.631,1.286,11.418.044.804.804,1.286-.453,2.061ZM59.805,281.822c-.439-4.576-1.462-9.151-1.126-13.786.059-.979-.102-1.798.848-2.456l1.374,21.49c-1.857-.863-.921-3.552-1.096-5.248ZM62.276,284.863c-1.023-.687-.76-1.462-.833-2.456-.365-4.971-.453-9.912-.541-14.911-.015-1.228-1.184-2.427,1.096-2.471.234,4.693.38,9.371.556,14.064.073,1.798,1.593,4.196-.278,5.775ZM64.761,282.655c-.599.746-1.053.088-1.096-.819-.292-5.701-.365-11.432-.965-17.104l1.506-.804c.76,6.169.629,12.514.556,18.727ZM66.983,279.103c-.073.833-.102,1.696-1.111,1.9.599-5.19-1.462-11.798-.57-16.797.175-.965.614-1.55,1.667-1.374-1.55,5.321.585,10.804.015,16.271ZM68.065,279.351l-.541-17.075h1.652v13.493c0,.979,1.608,2.485-1.111,3.582ZM72.48,276.603v-4.415l5.497,1.667-5.497,2.748ZM84.175,270.989c-1.345.175-7.383-1.199-7.763-2.456-.365-1.213.278-2.807-.629-4.05l14.327,3.304c-.965,1.316-4.386,3.012-5.935,3.202ZM95.403,265.565c-5.555-1.593-11.14-3.406-16.739-4.795-1.433-.351-3.567-1.111-4.883-1.228-3.026-.248-7.733,1.9-10.657,3.012-14.604,5.599-31.49,11.374-33.068,29.75-.307,3.567-.76,9.824,2.354,11.958,3.845,2.646,15.745,6.14,20.774,7.894.599.205,2.134,0,1.652,1.082-.541,1.199-1.17.468-1.9.263-1.667-.468-3.348-1.067-4.985-1.623-4.78-1.623-13.04-4.196-17.192-6.505-1.594-.892-2.105-3.114-2.31-4.854-1.111-9.649,3.158-21.563,10.409-28.069,4.459-3.991,21.651-10.701,27.966-12.792,7.207-2.398,8.771-1.286,15.803.453,5.394,1.33,10.687,3.406,16.3,3.816-.541,1.316-2.237,1.784-3.523,1.637Z" fill="none" stroke="#fff" stroke-miterlimit="10"/>
    <path d="M198.336,262.305c-15.394-3.275-30.656-7.514-46.211-9.926l-44.077,21.256-6.111,2.953c-.541.877-.351,4.254.409,4.854l5.701,1.681,39.208,11.534c3.582.614,8.245-2.515,11.549-4.181,12.543-6.359,25.759-13.479,38.01-20.394,3.947-2.222,7.894-5.087,1.52-7.777ZM194.812,266.428c-13.172,6.169-25.598,13.844-38.58,20.379-6.432,3.231-6.125,3.582-13.362,1.754-11.681-2.924-23.113-7.149-34.823-9.926-1.389-.336-2.778-.643-4.166-.936,1.096-1.096,2.602-1.959,4.166-2.734,1.14-.57,2.295-1.082,3.348-1.593,13.508-6.564,27.148-12.879,40.714-19.341l3.143.117,43.389,9.78-3.83,2.5Z" fill="none" stroke="#fff" stroke-miterlimit="10"/>
    <path d="M138.178,297.669c-10.131-2.588-20.043-6.169-30.13-8.932-3.114-.848-6.242-1.623-9.4-2.266-7.953,0-14.824,10.847-17.236,17.528-1.316,3.655-2.88,10.233-2.076,13.947.468,2.222,1.608,3.742,3.786,4.488l24.926,9.371,12.558,4.722c.614-.175,1.301-.512,1.754-.95,1.652-1.608,1.564-7.427,2.061-10.073,1.857-9.883,6.096-16.388,13.069-23.317.439-.439,1.184-.614,1.491-.95,1.126-1.243.863-3.012-.804-3.567ZM132.798,304.686c-6.798,7.573-10.336,17.411-10.745,27.557l-14.005-5.248-22.66-8.508v-1.681l11.871-25.335c-.833.132-1.023,1.038-1.374,1.652-3.874,6.535-6.622,14.487-10.087,21.315l-1.754,2.924c-.102-3.187,1.857-6.725,3.202-9.736,1.9-4.21,4.824-10.453,7.149-14.341,1.623-2.69,2.865-2.295,5.76-2.251l7.894,2.412,27.791,8.508-3.041,2.734ZM135.956,300.476l-27.908-8.26-9.912-2.924c-6.505.322-13.493,13.04-14.926,18.698-3.026,11.871.702,11.695,10.058,15.306,1.228.468,2.441.936,3.669,1.389,3.392,1.272,6.812,2.485,10.233,3.699.292.117.585.219.877.307,2.178.775,4.371,1.55,6.549,2.324,2.193.775,4.357,1.55,6.535,2.339l.38,1.652-3.757-.38c-3.172-1.403-6.432-2.661-9.707-3.859-5.892-2.149-11.871-4.093-17.689-6.345-.921-.351-1.827-.716-2.719-1.082-1.023-.409-2.032-.848-3.041-1.286-2.924-1.301-4.357-2.646-4.444-6.082-.088-3.83,1.696-10.804,3.231-14.4,2.792-6.52,9.795-15.774,17.894-13.83l6.769,2.017,29.969,8.903c.819,1.272-.702,2.281-2.061,1.813Z" fill="none" stroke="#fff" stroke-miterlimit="10"/>
    <path d="M120.591,245.289c-3.172-.336-8.435-2.427-12.543-3.158-1.447-.263-2.748-.351-3.772-.132-1.506.322-11.067,4.503-12.251,5.394-1.798,1.36-1.199,3.816.292,5.219,4.941.936,10.643,3.816,15.73,3.304.833-.088,1.637-.248,2.441-.541,1.623-.585,11.476-4.927,11.856-5.745.278-.629-.702-4.035-1.754-4.342ZM106.63,254.557l-13.45-3.26-.322-1.696c.468-.468,11.637,2.398,12.836,2.865,1.096.439,1.023,1.009.936,2.091ZM107.156,251.049c-.263.015-.512.029-.775.029-1.023,0-2.047-.132-3.085-.336-1.023-.205-2.061-.482-3.099-.775-1.564-.439-3.114-.921-4.678-1.228-.512-.102-1.038-.19-1.55-.248l6.783-3.392c.629-.38,1.257-.672,1.9-.877.395-.132.775-.234,1.155-.307,1.082-.219,2.178-.248,3.275-.146.322.029.643.073.965.117.351.044.687.117,1.038.175.088.015.19.029.292.058.351.073.716.161,1.067.248,1.418.351,2.851.775,4.283,1.155.439.117.892.234,1.33.322.365.088.716.161,1.067.219.248.044.482.088.731.117.292.059.599.088.892.117l-7.324,3.406c-.278.175-.556.322-.833.453s-.556.248-.848.351c-.263.102-.541.19-.819.263-.292.073-.585.132-.877.175-.044.015-.073.015-.117.015-.205.029-.409.059-.614.073-.058,0-.102.015-.161.015ZM108.297,254.557l-.248-.979-.307-1.213c.102-.029.205-.059.307-.102.906-.278,1.827-.658,2.748-1.067.585-.278,1.184-.57,1.783-.848.044-.029.102-.044.161-.088.365-.175.731-.351,1.082-.526.979-.482,1.974-.965,2.938-1.36.351-.146.702-.292,1.053-.409.088-.029.161-.058.248-.088.234-.088.453-.161.673-.219,1.126-.336,1.447-.482,2.222.57l-12.66,6.33Z" fill="none" stroke="#fff" stroke-miterlimit="10"/>
    <path d="M74.088,313.238c-.292-3.889,1.696-5-3.275-7.163-1.272-.541-7.003-2.661-7.88-2.412-3.655,1.053-1.36,10.774-1.199,13.698.804,1.842,11.125,5.585,11.856,5.263,2.266-1.009.643-7.28.497-9.385ZM73.021,319.027l-6.652-3.114-2.164-10.116c1.93.015,8.815,2.017,8.815,4.137v9.093Z" fill="none" stroke="#fff" stroke-miterlimit="10"/>
    <polygon points="119.86 525.084 117.711 524.206 108.048 517.467 105.534 515.713 107.683 516.59 108.048 516.838 119.86 525.084" fill="none" stroke="#fff" stroke-miterlimit="10"/>
    <path d="M107.741,513.505l-4.576-2.31-9.21-5.95c1.082-.029,2.017.716,2.924,1.213,3.626,1.974,7.69,4.459,10.862,7.046Z" fill="none" stroke="#fff" stroke-miterlimit="10"/>
    <path d="M146.847,544.907l-5.76-3.859-3.596-3.289c1.009-.044,1.915.848,2.704,1.418.658.482,7.003,5.424,6.652,5.731Z" fill="none" stroke="#fff" stroke-miterlimit="10"/>
    <path d="M174.398,425.91c.612,2.214.588,3.737-.525,5.808-.415.773-.459,1.592-1.672,1.352-.487-.592.668-5.35,1.053-6.389.277-.749-.23-.948,1.144-.771Z" fill="none" stroke="#fff" stroke-miterlimit="10"/>
    <polygon points="158.423 449.054 154.143 451.655 149.059 453.454 156.019 449.675 158.423 449.054" fill="none" stroke="#fff" stroke-miterlimit="10"/>
    <path d="M169.443,390.643c-1.064.881-7.351-.206-8.818-.818-3.574-1.492-3.705-6.86-4.405-10.194,6.854-2.663,10.056,6.543,13.223,11.012ZM167.791,389.542c.284-.232-3.677-5.551-4.122-6.067-.618-.715-3.695-4.146-4.693-3.292,1.89,1.353,4.773,8.326,6.053,9.094.816.49,1.862.234,2.762.265ZM163.934,389.542c-1.57-2.478-3.008-5.257-4.838-7.555-.52-.653-.616-1.515-1.774-1.253,1.418,4.591.521,8.547,6.611,8.808Z" fill="none" stroke="#fff" stroke-miterlimit="10"/>
    <path d="M160.625,406.624l-2.196-15.423c.785-.13.765.962.934,1.536,1.339,4.553,1.396,9.177,1.262,13.887Z" fill="none" stroke="#fff" stroke-miterlimit="10"/>
    <path d="M141.891,544.907c-.965.132-1.608-.687-2.368-1.199-3.801-2.573-7.427-5.468-11.228-8.055-6.695-4.576-13.464-9.035-20.247-13.449-8.348-5.409-16.724-10.76-25.057-16.169-2.982-1.944-6.228-3.918-8.859-6.286l2.149.863c10.526,6.944,21.198,13.713,31.767,20.584,7.558,4.897,15.058,9.868,22.455,14.999,3.83,2.661,8.143,5.511,11.388,8.713Z" fill="none" stroke="#fff" stroke-miterlimit="10"/>
    <path d="M144.654,553.181c-1.433-.278-2.836-1.477-4.035-2.295-10.862-7.412-21.549-15.087-32.571-22.265-.161-.102-.336-.219-.497-.322l-1.462-1.564c.716.015,1.345.409,1.959.862.365.278.716.556,1.067.789,7.763,4.97,15.438,10.306,23.04,15.525,4.225,2.909,8.742,5.848,12.499,9.268Z" fill="none" stroke="#fff" stroke-miterlimit="10"/>
    <path d="M72.48,498.638c-.936.176-1.447-.482-2.149-.877-3.055-1.754-7.193-4.43-10.029-6.506-.556-.409-1.477-.643-1.608-1.433,2.266.702,4.561,2.339,6.579,3.626,2.412,1.52,5.131,3.216,7.207,5.19Z" fill="none" stroke="#fff" stroke-miterlimit="10"/>
    <path d="M200.298,62.279c-2.301,2.707-5.257,5.407-7.989,7.71-.624.526-.893,1.334-1.929,1.098,2.289-2.919,5.225-5.251,7.988-7.71.615-.548.91-1.323,1.929-1.097Z" fill="none" stroke="#fff" stroke-miterlimit="10"/>
    <path d="M209.113,69.992c-2.176,3.178-5.604,5.431-8.276,7.973-2.285,2.175-4.509,4.906-6.875,6.899-.624.526-.893,1.334-1.929,1.098,3.392-4.231,7.617-7.678,11.582-11.279,1.227-1.114,2.312-2.535,3.569-3.593.624-.526.893-1.334,1.929-1.098Z" fill="none" stroke="#fff" stroke-miterlimit="10"/>
    <path d="M195.89,88.174c-2.966,3.079-5.818,6.607-9.09,9.363-.624.526-.893,1.334-1.929,1.098,2.966-3.079,5.818-6.607,9.09-9.363.624-.526.893-1.334,1.929-1.098Z" fill="none" stroke="#fff" stroke-miterlimit="10"/>
    <path d="M186.524,58.973c-2.385,2.566-4.754,5.452-7.438,7.71-.624.525-.892,1.331-1.927,1.1l7.435-7.712,1.929-1.098Z" fill="none" stroke="#fff" stroke-miterlimit="10"/>
    <path d="M123.163,374.666l-2.224-.251-84.856-37.584-.52-2.93c29.112,11.498,57.592,24.62,86.511,36.625l1.089,4.141Z" fill="none" stroke="#fff" stroke-miterlimit="10"/>
    <path d="M92.844,398.935l-.804,2.164c-1.579-.789-3.377-1.038-3.041-3.289l3.845,1.126Z" fill="none" stroke="#fff" stroke-miterlimit="10"/>
    <polygon points="229.504 133.906 205.294 247.16 204.432 247.423 113.793 230.319 134.187 133.906 229.504 133.906" fill="none" stroke="#fff" stroke-miterlimit="10"/>
    <path d="M229.499,132.247h-95.041c-.14,0-1.68,1.557-1.802,2.055l-19.963,95.469-1.649-.003,20.659-98.071h94.214c.765,0,2.821-1.68,3.581.551Z" fill="none" stroke="#fff" stroke-miterlimit="10"/>
    <path d="M98.921,263.931c-.537,1.316-2.23,1.776-3.525,1.639-5.555-1.594-11.132-3.405-16.737-4.796-1.427-.354-3.56-1.117-4.871-1.226-3.035-.251-7.735,1.888-10.669,3.011-14.593,5.588-31.489,11.37-33.07,29.74-.308,3.575-.751,9.827,2.363,11.966,3.841,2.639,15.737,6.132,20.767,7.891.604.211,2.145,0,1.661,1.076-.544,1.208-1.174.47-1.9.27-1.674-.462-3.35-1.069-4.996-1.629-4.773-1.622-13.032-4.183-17.19-6.501-1.586-.884-2.104-3.109-2.305-4.858-1.107-9.65,3.151-21.564,10.406-28.059,4.456-3.99,21.654-10.701,27.969-12.803,7.202-2.397,8.764-1.28,15.801.46,5.4,1.335,10.689,3.412,16.296,3.818Z" fill="none" stroke="#fff" stroke-miterlimit="10"/>
    <path d="M90.106,267.787c-.966,1.319-4.378,3.007-5.926,3.206-1.343.172-7.389-1.201-7.768-2.463-.363-1.207.277-2.807-.63-4.049l14.325,3.306Z" fill="none" stroke="#fff" stroke-miterlimit="10"/>
    <path d="M54.844,286.792c.054.747,1.885,4.504-.549,4.13.478-2.701-.441-5.517-.558-7.982-.168-3.539-.492-10.548-.003-13.788.185-1.224,1.201-1.454,2.208-1.92.169,2.979-.217,6.14-.001,9.096.294,4.023,1.043,7.241,1.103,11.585.017,1.212,1.196,2.424-1.098,2.456l.006-6.338-1.109-7.432c.174,3.337-.238,6.88,0,10.193Z" fill="none" stroke="#fff" stroke-miterlimit="10"/>
    <path d="M37.213,298.362c.022.167.594.407.555.806l-6.063,2.223c.49-1.327-.59-3.7-.416-4.596.093-.477.81-.961.956-1.75.205-1.108-.008-2.637.007-3.85.008-.657-.401-2.055.549-1.921-.386,2.207.466,4.24.594,6.317.089,1.437-1.245,4.942,1.06,4.698.448-.916-.549-2.139-.549-2.477v-13.223c0-.222.701-.84.556-1.375l.546-.003v11.846l1.098,4.13c-.05-3.574.08-7.168.009-10.747-.044-2.255-.856-4.241-.232-6.919.116-.499.623-2.224,1.328-2.167.56,5.956-.755,13.22,0,19.008Z" fill="none" stroke="#fff" stroke-miterlimit="10"/>
    <path d="M50.987,291.75c.001.117.41.289.422.551l-1.522.825c-.111-2.648.146-5.343.003-7.992-.058-1.074-.545-2.077-.582-3.275-.095-3.071-.312-7.596-.002-10.521.221-2.09,1.68-3.05,1.68-.524,0,6.977-.068,13.96,0,20.937Z" fill="none" stroke="#fff" stroke-miterlimit="10"/>
    <path d="M42.721,273.846l-.003,9.094.562,2.744c.066,2.205-.087,4.419-.013,6.622.037,1.114,1.579,4.078-.814,4.131l-1.297-21.683,1.566-.908Z" fill="none" stroke="#fff" stroke-miterlimit="10"/>
    <path d="M58.148,266.679l-.004,9.099c.465,3.761,1.082,7.643,1.28,11.425.042.802.801,1.281-.454,2.064-1.408.248-.702-1.084-.798-1.944-.764-6.842-1.399-13.763-1.674-20.644h1.649Z" fill="none" stroke="#fff" stroke-miterlimit="10"/>
    <path d="M44.378,295.33c-.47-4.859-.369-9.703-.548-14.604-.086-2.361-1.875-6.766.542-8.535l1.508,22.338-1.502.8Z" fill="none" stroke="#fff" stroke-miterlimit="10"/>
    <path d="M49.332,293.677c-1.59.258-.911-.338-1.159-1.291-.889-3.407-1.335-15.552-1.068-19.394.068-.975-.093-1.797.854-2.452l1.373,23.136Z" fill="none" stroke="#fff" stroke-miterlimit="10"/>
    <path d="M62.005,265.031c.226,4.682.37,9.362.548,14.053.068,1.796,1.591,4.204-.27,5.772-1.033-.682-.773-1.45-.845-2.453-.354-4.969-.448-9.908-.529-14.914-.02-1.215-1.193-2.42,1.096-2.457Z" fill="none" stroke="#fff" stroke-miterlimit="10"/>
    <path d="M52.638,268.887l.551,23.136c-.616.721-1.056.086-1.101-.816-.128-2.574.146-5.186.011-7.758-.242-4.632-.8-8.953-.562-13.746.045-.902.485-1.538,1.101-.816Z" fill="none" stroke="#fff" stroke-miterlimit="10"/>
    <path d="M64.208,263.928c.764,6.174.627,12.51.549,18.73-.589.741-1.052.09-1.098-.817-.289-5.7-.367-11.438-.953-17.112l1.502-.801Z" fill="none" stroke="#fff" stroke-miterlimit="10"/>
    <path d="M69.169,262.274v13.499c0,.979,1.62,2.478-1.098,3.581l-.553-17.082,1.651.003Z" fill="none" stroke="#fff" stroke-miterlimit="10"/>
    <path d="M40.523,297.535l-.549-12.953-1.103-7.431c-.792,6.294,1.202,13.459.572,19.582-.086.836-.117,1.689-1.123,1.904.658-6.404-1.293-13.269-.584-19.588.192-1.715,1.376-2.647,2.78-3.552.224,5.413.346,10.838.55,16.259.065,1.717,1.736,4.597-.542,5.78Z" fill="none" stroke="#fff" stroke-miterlimit="10"/>
    <path d="M60.901,287.067c-1.856-.862-.926-3.554-1.091-5.241-.449-4.581-1.46-9.151-1.134-13.793.068-.974-.094-1.797.854-2.452l1.372,21.485Z" fill="none" stroke="#fff" stroke-miterlimit="10"/>
    <path d="M46.578,271.642l-.003,14.053,1.107,8.531c-1.592.262-.913-.335-1.161-1.289-.605-2.317-.927-6.912-1.048-9.446-.164-3.443-.166-7.592.005-11.033.045-.902.485-1.538,1.101-.816Z" fill="none" stroke="#fff" stroke-miterlimit="10"/>
    <path d="M66.965,262.829c-1.549,5.32.589,10.812.025,16.274-.086.836-.116,1.689-1.123,1.904.606-5.194-1.453-11.798-.558-16.808.17-.954.611-1.539,1.656-1.37Z" fill="none" stroke="#fff" stroke-miterlimit="10"/>
    <path d="M54.844,307.454l-.002,3.302-6.059-1.655c.285-1.646,5.748-1.985,6.061-1.647Z" fill="none" stroke="#fff" stroke-miterlimit="10"/>
    <polygon points="77.982 273.848 72.479 276.599 72.479 272.191 77.982 273.848" fill="none" stroke="#fff" stroke-miterlimit="10"/>
    <path d="M58.701,290.377c-2.205,2.524-6.127,3.794-9.364,4.4l1.459-1.01,7.905-3.39Z" fill="none" stroke="#fff" stroke-miterlimit="10"/>
    <path d="M198.643,263.928l-3.83,2.5c-13.172,6.169-25.598,13.844-38.58,20.379-6.432,3.231-6.125,3.582-13.362,1.754-11.681-2.924-23.113-7.149-34.823-9.926v-3.669c1.14-.57,2.295-1.082,3.348-1.593,13.508-6.564,27.148-12.879,40.714-19.341l3.143.117,43.389,9.78Z" fill="none" stroke="#fff" stroke-miterlimit="10"/>
    <path d="M108.048,274.965v3.669c-1.389-.336-2.778-.643-4.166-.936,1.096-1.096,2.602-1.959,4.166-2.734Z" fill="none" stroke="#fff" stroke-miterlimit="10"/>
    <path d="M135.832,301.948l-3.037,2.74c-6.795,7.577-10.33,17.403-10.738,27.558l-36.669-13.757-.005-1.685,11.88-25.329c-.836.127-1.027,1.04-1.384,1.643-3.873,6.536-6.621,14.494-10.081,21.324l-1.751,2.927c-.106-3.194,1.849-6.734,3.2-9.742,1.893-4.216,4.827-10.46,7.15-14.337,1.614-2.694,2.856-2.302,5.759-2.264l35.674,10.923ZM106.508,320.251c.739.933.643,3.96,3.178,4.302,1.991.269,13.474-6.602,14.301-8.286,1.073-2.184-1.839-15.082-3.911-16.467-2.93-1.958-4.228,1.584-6.458,1.466-2.17-.115-10.129-4.29-11.852-3.084l-6.996,14.757c-.234.747-.42,1.669-.289,2.433.195,1.137,11.119,3.731,12.028,4.879Z" fill="none" stroke="#fff" stroke-miterlimit="10"/>
    <path d="M138.023,298.665c.82,1.267-.704,2.284-2.066,1.817l-37.822-11.189c-6.512.327-13.49,13.038-14.93,18.698-3.018,11.866.702,11.697,10.063,15.307,9.202,3.549,18.6,6.684,27.87,10.05l.374,1.651-3.754-.379c-10.765-4.754-22.412-7.832-33.155-12.574-2.923-1.29-4.356-2.635-4.444-6.075-.098-3.832,1.696-10.807,3.233-14.406,2.783-6.516,9.79-15.765,17.885-13.823l36.747,10.923Z" fill="none" stroke="#fff" stroke-miterlimit="10"/>
    <path d="M118.753,246.3l-7.334,3.404c-5.63,3.413-11.581-.543-17.455-1.208l6.783-3.404c5.805-3.494,11.918.638,18.006,1.208Z" fill="none" stroke="#fff" stroke-miterlimit="10"/>
    <path d="M106.632,254.558l-13.45-3.263-.32-1.691c.464-.466,11.64,2.389,12.835,2.864,1.096.436,1.024,1.008.935,2.091Z" fill="none" stroke="#fff" stroke-miterlimit="10"/>
    <path d="M108.292,254.56l-.552-2.188c3.654-1.076,7.413-3.663,10.999-4.719,1.117-.329,1.45-.471,2.213.572l-12.66,6.335Z" fill="none" stroke="#fff" stroke-miterlimit="10"/>
    <path d="M73.026,319.023l-6.653-3.112-2.162-10.107c1.922.004,8.815,2.011,8.815,4.128v9.091Z" fill="none" stroke="#fff" stroke-miterlimit="10"/>
    <path d="M167.791,389.542c-.9-.03-1.946.225-2.762-.265-1.28-.768-4.163-7.741-6.053-9.094.998-.854,4.075,2.577,4.693,3.292.446.515,4.407,5.835,4.122,6.067Z" fill="none" stroke="#fff" stroke-miterlimit="10"/>
    <path d="M163.934,389.542c-6.09-.261-5.194-4.216-6.611-8.808,1.158-.262,1.254.6,1.774,1.253,1.83,2.298,3.267,5.077,4.838,7.555Z" fill="none" stroke="#fff" stroke-miterlimit="10"/>
    <path d="M106.508,320.251c-.909-1.148-11.833-3.742-12.028-4.879-.131-.764.054-1.686.289-2.433l6.996-14.757c1.723-1.206,9.682,2.969,11.852,3.084,2.23.118,3.528-3.424,6.458-1.466,2.072,1.385,4.983,14.282,3.911,16.467-.827,1.684-12.31,8.555-14.301,8.286-2.534-.342-2.439-3.369-3.178-4.302ZM112.144,301.947l-9.915-2.757.002,1.651c1.68-1.112,2.713.131,4.344.608-.149,5.06-3.157,7.364-7.097,3.25l-1.104,3.855c1.158-.878,5.702.273,5.446,1.836-.149.913-1.937,3.972-2.855,4.38-1.369.607-4.823-.897-4.251-2.907-1,.067-1.268,2.166-.858,2.766.377.553,9.837,4.224,10.228,3.841l-2.127-10.141,8.189-6.381ZM118.753,300.839c-.785-.128-1.357.118-2.048.431-3.49,1.582-7.342,5.502-10.937,7.283l2.534,13.212c1.777.278,3.26-.778,4.767-1.542,1.651-.837,7.96-4.535,8.372-5.995l-2.688-13.389Z" fill="none" stroke="#fff" stroke-miterlimit="10"/>
    <path d="M118.753,300.839l2.688,13.389c-.411,1.46-6.721,5.158-8.372,5.995-1.507.764-2.989,1.82-4.767,1.542l-2.534-13.212c3.595-1.781,7.447-5.701,10.937-7.283.691-.313,1.262-.559,2.048-.431ZM112.525,307.521c-.726.204-2.802,3.431-3.015,4.183-1.07,3.779,2.018,4.177,5.034,3.939.775-.258,3.316-5.32,3.07-6.185-.294-1.036-4.019-2.238-5.09-1.937Z" fill="none" stroke="#fff" stroke-miterlimit="10"/>
    <path d="M112.144,301.947l-8.189,6.381,2.127,10.141c-.39.383-9.851-3.288-10.228-3.841-.409-.6-.142-2.699.858-2.766-.572,2.009,2.882,3.514,4.251,2.907.918-.407,2.706-3.466,2.855-4.38.256-1.563-4.288-2.714-5.446-1.836l1.104-3.855c3.94,4.114,6.949,1.81,7.097-3.25-1.63-.476-2.663-1.719-4.344-.608l-.002-1.651,9.915,2.757Z" fill="none" stroke="#fff" stroke-miterlimit="10"/>
    <path d="M112.525,307.521c1.07-.301,4.796.901,5.09,1.937.246.865-2.295,5.927-3.07,6.185-3.016.238-6.105-.161-5.034-3.939.213-.752,2.289-3.979,3.015-4.183ZM115.986,309.676l-2.738-.569c-.154,1.428.245,2.902,1.375,3.847.924-.813,1.524-2.028,1.363-3.278ZM114.346,314.613l-2.748-4.403-1.104,3.852,1.899-.588c.194.887,1.293,1.735,1.953,1.138Z" fill="none" stroke="#fff" stroke-miterlimit="10"/>
    <path d="M114.346,314.613c-.66.597-1.759-.251-1.953-1.138l-1.899.588,1.104-3.852,2.748,4.403Z" fill="none" stroke="#fff" stroke-miterlimit="10"/>
    <path d="M115.986,309.676c.161,1.25-.438,2.465-1.363,3.278-1.13-.945-1.53-2.419-1.375-3.847l2.738.569Z" fill="none" stroke="#fff" stroke-miterlimit="10"/>
  </g>
</svg>